<?xml version="1.0" encoding="UTF-8" standalone="no"?>
<svg
   xmlns:dc="http://purl.org/dc/elements/1.1/"
   xmlns:cc="http://creativecommons.org/ns#"
   xmlns:rdf="http://www.w3.org/1999/02/22-rdf-syntax-ns#"
   xmlns:svg="http://www.w3.org/2000/svg"
   xmlns="http://www.w3.org/2000/svg"
   id="svg1431"
   version="1.1"
   viewBox="0 0 59.52021 15.552541"
   height="15.552541mm"
   width="59.52021mm">
  <defs
     id="defs1425" />
  <metadata
     id="metadata1428">
    <rdf:RDF>
      <cc:Work
         rdf:about="">
        <dc:format>image/svg+xml</dc:format>
        <dc:type
           rdf:resource="http://purl.org/dc/dcmitype/StillImage" />
        <dc:title></dc:title>
      </cc:Work>
    </rdf:RDF>
  </metadata>
  <g
     transform="translate(-61.71012,-35.979682)"
     id="layer1">
    <path
       style="fill:#029733;fill-opacity:1;fill-rule:nonzero;stroke:none;stroke-width:0.35277778"
       d="m 87.308546,39.829923 c -1.340831,-0.421682 -2.589333,-0.825447 -2.589333,-1.688098 0,-0.119888 0.02618,-0.23289 0.07166,-0.337619 -0.875055,1.652267 1.905825,2.778125 1.905825,2.778125 0,0 3.064757,1.190625 2.013313,2.776746 -0.279741,0.715204 -1.329806,1.092786 -2.516296,1.109321 -1.429025,0.03721 -2.140095,-0.110244 -3.25355,-0.733115 l -0.08268,1.245747 c 1.225073,0.293521 2.428102,0.421678 3.588409,0.421678 2.06568,0.01792 4.427636,-0.80615 4.427636,-2.732648 0,-1.703257 -1.861727,-2.290301 -3.564984,-2.840137"
       id="path274" />
    <path
       style="fill:#ccd407;fill-opacity:1;fill-rule:nonzero;stroke:none;stroke-width:0.35277778"
       d="m 86.696698,40.582331 c 0,0 -2.78088,-1.125858 -1.905825,-2.778125 0.267338,-0.614606 1.255391,-0.95498 2.243444,-0.908127 1.977486,0.07303 2.840136,0.604957 3.544317,1.045929 0,-0.367933 0.04547,-0.679372 -0.04548,-1.174086 -1.180978,-0.604958 -1.998151,-0.78824 -3.724833,-0.78824 -2.178682,0 -4.156164,0.916397 -4.156164,2.455665 0,1.816255 1.861729,2.366091 3.58841,2.878723 1.316027,0.384472 2.543861,0.751029 2.543861,1.649511 0,0.141937 -0.02617,0.272853 -0.07442,0.39412 1.051444,-1.586124 -2.013313,-2.77537 -2.013313,-2.77537"
       id="path276" />
    <path
       style="fill:#5c306e;fill-opacity:1;fill-rule:nonzero;stroke:none;stroke-width:0.35277778"
       d="m 77.397694,36.15194 c -2.95589,0 -4.619184,1.865863 -4.619184,4.85896 v 4.2857 h 2.124936 v -4.858964 c 0,-2.476334 1.052823,-3.214963 2.585201,-3.195669 1.533755,0.01792 2.345419,0.738628 2.345419,3.195669 V 45.2966 h 2.126315 v -4.2857 c 0,-2.993097 -1.274685,-4.85896 -4.562687,-4.85896"
       id="path278" />
    <path
       style="fill:#5c306e;fill-opacity:1;fill-rule:nonzero;stroke:none;stroke-width:0.35277778"
       d="m 96.396707,36.110598 c 1.621954,0 2.882858,0.461641 3.723463,1.367014 0.76067,-0.850251 1.9637,-1.367014 3.72208,-1.367014 3.12815,0 4.85896,1.544778 4.85896,4.83967 v 4.342197 h -2.24896 v -4.904437 c 0,-2.476334 -0.98667,-3.206697 -2.60862,-3.187403 -1.60266,0 -2.61001,0.766191 -2.61001,3.187403 v 4.904437 h -2.237932 v -4.904437 c 0,-2.476334 -0.977027,-3.206697 -2.600356,-3.187403 -1.621952,0.01792 -2.608625,0.728983 -2.608625,3.187403 v 4.904437 h -2.247583 v -4.342197 c 0,-3.294892 1.748729,-4.83967 4.857583,-4.83967"
       id="path280" />
    <path
       style="fill:#5c306e;fill-opacity:1;fill-rule:nonzero;stroke:none;stroke-width:0.35277778"
       d="m 69.482242,42.448194 c 0,0.194303 -0.0014,1.157552 -1.019746,1.157552 H 64.58745 c -0.782726,0 -1.511706,-0.571884 -1.511706,-1.471743 0,-0.890213 0.72898,-1.378038 1.492416,-1.378038 l 4.914082,0.0041 z m -1.335317,-6.159832 h -4.558552 l -0.17501,1.678454 0.0028,0.0014 h 5.046377 c 1.019747,0 1.021126,0.789615 1.021126,0.983922 v 0.133667 l -0.0014,-0.0041 h -4.486901 c -1.60679,0.03721 -2.796039,0.558109 -3.205315,2.244828 -0.05099,0.21911 -0.07993,0.578777 -0.07993,0.817178 0,0.237024 0.02893,0.571884 0.07855,0.79375 0.304546,1.50344 1.495171,2.359201 3.206694,2.359201 h 3.81441 c 0.803398,0 1.321541,-0.157095 1.97473,-0.629765 0.549836,-0.39825 0.802019,-1.008722 0.802019,-1.641242 v -4.43315 c 0,-1.616439 -1.09003,-2.31648 -3.439583,-2.30408"
       id="path282" />
    <path
       style="fill:#5c306e;fill-opacity:1;fill-rule:nonzero;stroke:none;stroke-width:0.35277778"
       d="m 74.447315,47.377439 -0.312815,0.77997 h 0.627009 z m -0.110243,-0.212217 h 0.237024 l 0.665593,1.575096 h -0.245293 l -0.16123,-0.396875 h -0.771702 l -0.159851,0.396875 h -0.235644 z m 0,0"
       id="path284" />
    <path
       style="fill:#5c306e;fill-opacity:1;fill-rule:nonzero;stroke:none;stroke-width:0.35277778"
       d="m 76.253925,48.178079 c 0,-0.238401 -0.111622,-0.443728 -0.336243,-0.443728 -0.214972,0 -0.321081,0.231511 -0.321081,0.428569 0,0.216351 0.121268,0.405144 0.321081,0.405144 0.198438,0 0.336243,-0.175013 0.336243,-0.389985 m 0.210838,0.512628 c 0,0.350023 -0.179144,0.54984 -0.592554,0.54984 -0.121267,0 -0.227379,-0.01517 -0.413413,-0.07855 l 0.02205,-0.197058 c 0.163985,0.07579 0.260448,0.104729 0.416168,0.104729 0.223241,0 0.356912,-0.151582 0.356912,-0.395496 V 48.56255 h -0.0055 c -0.08957,0.118512 -0.2384,0.177768 -0.385851,0.177768 -0.32935,0 -0.491959,-0.268718 -0.491959,-0.566374 0,-0.294901 0.16812,-0.610471 0.515387,-0.610471 0.202572,0 0.315571,0.07304 0.378961,0.197061 h 0.0041 v -0.170878 h 0.195678 z m 0,0"
       id="path286" />
    <path
       style="fill:#5c306e;fill-opacity:1;fill-rule:nonzero;stroke:none;stroke-width:0.35277778"
       d="m 77.571328,48.054056 c 0,-0.175013 -0.103353,-0.321084 -0.286632,-0.321084 -0.206707,0 -0.293522,0.172254 -0.30868,0.321084 z m 0.137806,0.63803 c -0.0813,0.0303 -0.173634,0.07579 -0.363802,0.07579 -0.4079,0 -0.595313,-0.248045 -0.595313,-0.622871 0,-0.340375 0.213596,-0.582909 0.538812,-0.582909 0.384471,0 0.508497,0.279738 0.508497,0.650434 h -0.821312 c 0,0.227376 0.177768,0.383092 0.37896,0.383092 0.139182,0 0.301791,-0.07166 0.354158,-0.115754 z m 0,0"
       id="path288" />
    <path
       style="fill:#5c306e;fill-opacity:1;fill-rule:nonzero;stroke:none;stroke-width:0.35277778"
       d="m 78.082581,47.589656 h 0.205327 v 0.183278 h 0.0041 c 0.06339,-0.130912 0.216352,-0.210837 0.376206,-0.210837 0.297656,0 0.431324,0.186034 0.431324,0.493335 v 0.684886 h -0.212217 v -0.595312 c 0,-0.268718 -0.05926,-0.399631 -0.243914,-0.412034 -0.241155,0 -0.350019,0.194303 -0.350019,0.474045 v 0.533301 h -0.210842 z m 0,0"
       id="path290" />
    <path
       style="fill:#5c306e;fill-opacity:1;fill-rule:nonzero;stroke:none;stroke-width:0.35277778"
       d="m 80.192358,47.783959 c -0.08131,-0.03443 -0.16261,-0.05099 -0.231511,-0.05099 -0.235645,0 -0.369316,0.212217 -0.369316,0.431327 0,0.205327 0.111623,0.431324 0.383096,0.431324 0.07304,0 0.162609,-0.02205 0.228755,-0.06615 l 0.01517,0.190172 c -0.08819,0.04134 -0.188792,0.04823 -0.265962,0.04823 -0.347264,0 -0.585664,-0.274228 -0.585664,-0.603578 0,-0.350023 0.234265,-0.602202 0.585664,-0.602202 0.08544,0 0.195682,0.02067 0.257693,0.04547 z m 0,0"
       id="path292" />
    <path
       style="fill:#5c306e;fill-opacity:1;fill-rule:nonzero;stroke:none;stroke-width:0.35277778"
       d="m 81.207973,48.054056 c 0,-0.175013 -0.104733,-0.321084 -0.286632,-0.321084 -0.208086,0 -0.293525,0.172254 -0.30868,0.321084 z m 0.136423,0.63803 c -0.07992,0.0303 -0.17363,0.07579 -0.362423,0.07579 -0.407899,0 -0.595312,-0.248045 -0.595312,-0.622871 0,-0.340375 0.213596,-0.582909 0.538811,-0.582909 0.383096,0 0.507118,0.279738 0.507118,0.650434 h -0.819929 c 0,0.227376 0.177764,0.383092 0.377581,0.383092 0.140561,0 0.303167,-0.07166 0.354154,-0.115754 z m 0,0"
       id="path294" />
    <path
       style="fill:#5c306e;fill-opacity:1;fill-rule:nonzero;stroke:none;stroke-width:0.35277778"
       d="m 82.344852,47.589656 h 0.205328 v 0.183278 h 0.0055 c 0.06201,-0.130912 0.216352,-0.210837 0.376202,-0.210837 0.297657,0 0.431328,0.186034 0.431328,0.493335 v 0.684886 h -0.212217 v -0.595312 c 0,-0.268718 -0.05926,-0.399631 -0.243915,-0.412034 -0.241155,0 -0.350022,0.194303 -0.350022,0.474045 v 0.533301 h -0.212214 z m 0,0"
       id="path296" />
    <path
       style="fill:#5c306e;fill-opacity:1;fill-rule:nonzero;stroke:none;stroke-width:0.35277778"
       d="m 84.407777,48.191858 c -0.04548,0 -0.09095,-0.0041 -0.135047,-0.0041 -0.114377,0 -0.399633,0.01792 -0.399633,0.220486 0,0.122646 0.117132,0.187413 0.214975,0.187413 0.209462,0 0.319705,-0.130912 0.319705,-0.303167 z M 83.779392,47.67096 c 0.104729,-0.06339 0.23151,-0.107487 0.378961,-0.107487 0.32935,0 0.461641,0.16123 0.461641,0.475424 v 0.475421 c 0,0.130916 0.0041,0.191548 0.0096,0.226 h -0.198437 v -0.14883 h -0.0055 c -0.04961,0.07028 -0.16123,0.175013 -0.355533,0.175013 -0.248049,0 -0.421682,-0.107488 -0.421682,-0.358292 0,-0.289387 0.315574,-0.37896 0.533301,-0.37896 0.08406,0 0.143316,0 0.226,0.0041 0,-0.198437 -0.07166,-0.299032 -0.283877,-0.299032 -0.119888,0 -0.248045,0.04547 -0.333484,0.117133 z m 0,0"
       id="path298" />
    <path
       style="fill:#5c306e;fill-opacity:1;fill-rule:nonzero;stroke:none;stroke-width:0.35277778"
       d="m 85.590133,47.760534 h -0.303166 v 0.629762 c 0,0.132291 0.07992,0.205327 0.177764,0.205327 0.06477,0 0.111623,-0.02067 0.144696,-0.03996 v 0.179144 c -0.04823,0.01379 -0.112999,0.03305 -0.180524,0.03305 -0.219107,0 -0.355533,-0.104729 -0.355533,-0.33486 v -0.672482 h -0.257694 v -0.170879 h 0.257694 v -0.265963 l 0.213597,-0.0689 v 0.334864 h 0.303166 z m 0,0"
       id="path300" />
    <path
       style="fill:#5c306e;fill-opacity:1;fill-rule:nonzero;stroke:none;stroke-width:0.35277778"
       d="m 85.885034,47.589656 h 0.212217 v 1.150662 h -0.212217 z m 0.224621,-0.257694 h -0.2384 v -0.2384 h 0.2384 z m 0,0"
       id="path302" />
    <path
       style="fill:#5c306e;fill-opacity:1;fill-rule:nonzero;stroke:none;stroke-width:0.35277778"
       d="m 86.994355,48.595623 c 0.248045,0 0.359667,-0.225997 0.359667,-0.431324 0,-0.21911 -0.133671,-0.431327 -0.359667,-0.431327 -0.227376,0 -0.361047,0.212217 -0.361047,0.431327 0,0.205327 0.111622,0.431324 0.361047,0.431324 m 0,-1.033526 c 0.350022,0 0.584288,0.253559 0.584288,0.602202 0,0.32935 -0.2384,0.603578 -0.584288,0.603578 -0.347268,0 -0.585668,-0.274228 -0.585668,-0.603578 0,-0.348643 0.234269,-0.602202 0.585668,-0.602202"
       id="path304" />
    <path
       style="fill:#5c306e;fill-opacity:1;fill-rule:nonzero;stroke:none;stroke-width:0.35277778"
       d="m 87.863895,47.589656 h 0.205328 v 0.183278 h 0.0041 c 0.06339,-0.130912 0.216352,-0.210837 0.377587,-0.210837 0.297656,0 0.429947,0.186034 0.429947,0.493335 v 0.684886 h -0.212195 v -0.595312 c 0,-0.268718 -0.05787,-0.399631 -0.242533,-0.412034 -0.241157,0 -0.35002,0.194303 -0.35002,0.474045 v 0.533301 h -0.212221 z m 0,0"
       id="path306" />
    <path
       style="fill:#5c306e;fill-opacity:1;fill-rule:nonzero;stroke:none;stroke-width:0.35277778"
       d="m 89.926819,48.191858 c -0.04548,0 -0.09095,-0.0041 -0.135046,-0.0041 -0.115757,0 -0.399634,0.01792 -0.399634,0.220486 0,0.122646 0.117136,0.187413 0.213598,0.187413 0.210841,0 0.321082,-0.130912 0.321082,-0.303167 z M 89.297056,47.67096 c 0.106108,-0.06339 0.232888,-0.107487 0.37896,-0.107487 0.329353,0 0.46302,0.16123 0.46302,0.475424 v 0.475421 c 0,0.130916 0.0041,0.191548 0.0083,0.226 h -0.198437 v -0.14883 h -0.0041 c -0.04961,0.07028 -0.162607,0.175013 -0.356912,0.175013 -0.248044,0 -0.421677,-0.107488 -0.421677,-0.358292 0,-0.289387 0.31695,-0.37896 0.534675,-0.37896 0.08406,0 0.141941,0 0.226002,0.0041 0,-0.198437 -0.07304,-0.299032 -0.283877,-0.299032 -0.119888,0 -0.249425,0.04547 -0.334864,0.117133 z m 0,0"
       id="path308" />
    <path
       style="fill:#5c306e;fill-opacity:1;fill-rule:nonzero;stroke:none;stroke-width:0.35277778"
       d="m 90.524889,47.048085 h 0.212217 v 1.692233 h -0.212217 z m 0,0"
       id="path310" />
    <path
       style="fill:#5c306e;fill-opacity:1;fill-rule:nonzero;stroke:none;stroke-width:0.35277778"
       d="m 91.869853,48.054056 c 0,-0.175013 -0.103354,-0.321084 -0.286631,-0.321084 -0.208084,0 -0.293523,0.172254 -0.308681,0.321084 z m 0.137806,0.63803 c -0.0813,0.0303 -0.173633,0.07579 -0.363802,0.07579 -0.4079,0 -0.595313,-0.248045 -0.595313,-0.622871 0,-0.340375 0.213596,-0.582909 0.538811,-0.582909 0.384471,0 0.508497,0.279738 0.508497,0.650434 h -0.821311 c 0,0.227376 0.177768,0.383092 0.37896,0.383092 0.139181,0 0.30317,-0.07166 0.354158,-0.115754 z m 0,0"
       id="path312" />
    <path
       style="fill:#5c306e;fill-opacity:1;fill-rule:nonzero;stroke:none;stroke-width:0.35277778"
       d="m 93.475268,48.595623 c 0.2384,0 0.337619,-0.237021 0.337619,-0.428569 0,-0.214976 -0.110244,-0.434082 -0.340376,-0.434082 -0.230129,0 -0.319704,0.217731 -0.315568,0.427192 -0.0041,0.180524 0.08957,0.435459 0.318325,0.435459 m 0.345887,-0.01792 h -0.0041 c -0.0565,0.08682 -0.187412,0.190168 -0.391361,0.190168 -0.348644,0 -0.494718,-0.310056 -0.494718,-0.622871 0,-0.308681 0.16261,-0.582909 0.496094,-0.582909 0.201197,0 0.316949,0.07992 0.381719,0.186034 h 0.0041 v -0.700046 h 0.212219 v 1.692233 h -0.203951 z m 0,0"
       id="path314" />
    <path
       style="fill:#5c306e;fill-opacity:1;fill-rule:nonzero;stroke:none;stroke-width:0.35277778"
       d="m 95.131671,48.054056 c 0,-0.175013 -0.104733,-0.321084 -0.286631,-0.321084 -0.208087,0 -0.293526,0.172254 -0.308681,0.321084 z m 0.137803,0.63803 c -0.0813,0.0303 -0.175009,0.07579 -0.363802,0.07579 -0.4079,0 -0.595313,-0.248045 -0.595313,-0.622871 0,-0.340375 0.213596,-0.582909 0.538811,-0.582909 0.383096,0 0.508498,0.279738 0.508498,0.650434 h -0.821309 c 0,0.227376 0.177765,0.383092 0.378957,0.383092 0.139187,0 0.301792,-0.07166 0.354158,-0.115754 z m 0,0"
       id="path316" />
    <path
       style="fill:#5c306e;fill-opacity:1;fill-rule:nonzero;stroke:none;stroke-width:0.35277778"
       d="m 96.183112,48.514318 c 0.08406,0.05375 0.203951,0.0813 0.264583,0.0813 0.09647,0 0.216355,-0.03996 0.216355,-0.163985 0,-0.210842 -0.498853,-0.191548 -0.498853,-0.515388 0,-0.2384 0.177768,-0.352777 0.406524,-0.352777 0.09922,0 0.180523,0.0193 0.264584,0.0441 l -0.01929,0.184658 c -0.04685,-0.02893 -0.173636,-0.05788 -0.221867,-0.05788 -0.108863,0 -0.203949,0.0441 -0.203949,0.139182 0,0.234265 0.498851,0.168119 0.498851,0.534676 0,0.24667 -0.197059,0.358292 -0.402386,0.358292 -0.107487,0 -0.217731,-0.01101 -0.315574,-0.06339 z m 0,0"
       id="path318" />
    <path
       style="fill:#5c306e;fill-opacity:1;fill-rule:nonzero;stroke:none;stroke-width:0.35277778"
       d="m 97.646589,47.104586 h 0.245289 l -0.296275,0.325219 h -0.150206 z m 0.245289,0.94947 c 0,-0.175013 -0.103348,-0.321084 -0.286631,-0.321084 -0.208081,0 -0.29352,0.172254 -0.308681,0.321084 z m 0.137806,0.63803 c -0.0813,0.0303 -0.173633,0.07579 -0.363802,0.07579 -0.407898,0 -0.595313,-0.249424 -0.595313,-0.622871 0,-0.340375 0.213599,-0.582909 0.538814,-0.582909 0.383095,0 0.508497,0.279738 0.508497,0.650434 h -0.821314 c 0,0.227376 0.177768,0.383092 0.378963,0.383092 0.139181,0 0.301789,-0.07166 0.354155,-0.114378 z m 0,0"
       id="path320" />
    <path
       style="fill:#5c306e;fill-opacity:1;fill-rule:nonzero;stroke:none;stroke-width:0.35277778"
       d="m 99.133494,47.783959 c -0.0813,-0.03443 -0.162608,-0.05099 -0.230135,-0.05099 -0.237019,0 -0.370691,0.212217 -0.370691,0.431327 0,0.205327 0.110243,0.431324 0.383095,0.431324 0.07304,0 0.16261,-0.02205 0.228756,-0.06615 l 0.01654,0.190172 c -0.08957,0.04134 -0.190167,0.04823 -0.267338,0.04823 -0.347268,0 -0.585669,-0.274228 -0.585669,-0.603578 0,-0.350023 0.234268,-0.602202 0.585669,-0.602202 0.08681,0 0.197059,0.02067 0.257694,0.04547 z m 0,0"
       id="path322" />
    <path
       style="fill:#5c306e;fill-opacity:1;fill-rule:nonzero;stroke:none;stroke-width:0.35277778"
       d="m 100.42196,48.740318 h -0.20533 v -0.183279 h -0.005 c -0.062,0.130913 -0.21497,0.210838 -0.376201,0.210838 -0.297657,0 -0.431327,-0.186034 -0.431327,-0.494714 v -0.683507 h 0.212217 v 0.595312 c 0,0.268718 0.05926,0.39963 0.243914,0.410655 0.241157,0 0.350027,-0.194303 0.350027,-0.474045 v -0.531922 h 0.21221 z m 0,0"
       id="path324" />
    <path
       style="fill:#5c306e;fill-opacity:1;fill-rule:nonzero;stroke:none;stroke-width:0.35277778"
       d="m 100.78301,47.589656 h 0.19981 v 0.177768 h 0.004 c 0.0565,-0.118512 0.17777,-0.205327 0.29903,-0.205327 0.0634,0 0.0951,0.0069 0.14056,0.01654 v 0.188793 c -0.0386,-0.01517 -0.0813,-0.0193 -0.11713,-0.0193 -0.19017,0 -0.31419,0.179144 -0.31419,0.468531 v 0.523656 h -0.21222 z m 0,0"
       id="path326" />
    <path
       style="fill:#5c306e;fill-opacity:1;fill-rule:nonzero;stroke:none;stroke-width:0.35277778"
       d="m 101.68837,47.589656 h 0.21223 v 1.150662 h -0.21223 z m 0.22601,-0.257694 h -0.23979 v -0.2384 h 0.23979 z m 0,0"
       id="path328" />
    <path
       style="fill:#5c306e;fill-opacity:1;fill-rule:nonzero;stroke:none;stroke-width:0.35277778"
       d="m 102.90105,47.760534 h -0.30592 v 0.629762 c 0,0.132291 0.0813,0.205327 0.17914,0.205327 0.0648,0 0.11162,-0.02067 0.14332,-0.03996 v 0.179144 c -0.0469,0.01379 -0.11163,0.03305 -0.17915,0.03305 -0.21911,0 -0.35415,-0.104729 -0.35415,-0.33486 v -0.672482 h -0.26045 v -0.170879 h 0.26045 v -0.265963 l 0.21084,-0.0689 v 0.334864 h 0.30592 z m 0,0"
       id="path330" />
    <path
       style="fill:#5c306e;fill-opacity:1;fill-rule:nonzero;stroke:none;stroke-width:0.35277778"
       d="m 103.66586,47.104586 h 0.24529 l -0.2949,0.325219 h -0.15158 z m 0.24529,0.94947 c 0,-0.175013 -0.10335,-0.321084 -0.28663,-0.321084 -0.20671,0 -0.29352,0.172254 -0.30868,0.321084 z m 0.1378,0.63803 c -0.0813,0.0303 -0.17363,0.07579 -0.36242,0.07579 -0.40928,0 -0.59669,-0.249424 -0.59669,-0.622871 0,-0.340375 0.21497,-0.582909 0.54019,-0.582909 0.3831,0 0.50712,0.279738 0.50712,0.650434 h -0.82131 c 0,0.227376 0.17776,0.383092 0.37896,0.383092 0.13918,0 0.30179,-0.07166 0.35415,-0.114378 z m 0,0"
       id="path332" />
    <path
       style="fill:#5c306e;fill-opacity:1;fill-rule:nonzero;stroke:none;stroke-width:0.35277778"
       d="m 105.51657,48.595623 c 0.2384,0 0.33762,-0.237021 0.33762,-0.428569 0,-0.214976 -0.11025,-0.434082 -0.34038,-0.434082 -0.23013,0 -0.31971,0.217731 -0.31557,0.427192 -0.004,0.180524 0.0896,0.435459 0.31833,0.435459 m 0.34726,-0.01792 h -0.004 c -0.0579,0.08682 -0.18741,0.190168 -0.39274,0.190168 -0.34726,0 -0.49471,-0.310056 -0.49471,-0.622871 0,-0.308681 0.1626,-0.582909 0.49609,-0.582909 0.20119,0 0.31694,0.07992 0.38172,0.186034 h 0.004 v -0.700046 h 0.21221 v 1.692233 h -0.20257 z m 0,0"
       id="path334" />
    <path
       style="fill:#5c306e;fill-opacity:1;fill-rule:nonzero;stroke:none;stroke-width:0.35277778"
       d="m 107.44582,48.740318 h -0.20533 v -0.183279 h -0.004 c -0.0634,0.130913 -0.21635,0.210838 -0.37621,0.210838 -0.29903,0 -0.43132,-0.186034 -0.43132,-0.494714 v -0.683507 h 0.21222 v 0.595312 c 0,0.268718 0.0579,0.39963 0.24253,0.410655 0.24254,0 0.35002,-0.194303 0.35002,-0.474045 v -0.531922 h 0.21222 z m 0,0"
       id="path336" />
    <path
       style="fill:#5c306e;fill-opacity:1;fill-rule:nonzero;stroke:none;stroke-width:0.35277778"
       d="m 108.43249,47.589656 h 0.19844 V 47.7564 h 0.004 c 0.0813,-0.133671 0.19706,-0.194303 0.36656,-0.194303 0.13229,0 0.26596,0.06752 0.32659,0.223241 0.0785,-0.163989 0.25219,-0.223241 0.35554,-0.223241 0.29352,0 0.39963,0.190168 0.39963,0.439593 v 0.738628 h -0.21222 v -0.686262 c 0,-0.14194 -0.033,-0.321084 -0.20395,-0.321084 -0.21773,0 -0.30316,0.212217 -0.30316,0.427192 v 0.580154 h -0.21223 v -0.686262 c 0,-0.14194 -0.0344,-0.321084 -0.20532,-0.321084 -0.21635,0 -0.30179,0.212217 -0.30179,0.427192 v 0.580154 h -0.21222 z m 0,0"
       id="path338" />
    <path
       style="fill:#5c306e;fill-opacity:1;fill-rule:nonzero;stroke:none;stroke-width:0.35277778"
       d="m 110.94053,47.104586 h 0.24529 l -0.2949,0.325219 h -0.15159 z m 0.24529,0.94947 c 0,-0.175013 -0.10336,-0.321084 -0.28664,-0.321084 -0.20808,0 -0.29352,0.172254 -0.30868,0.321084 z m 0.1378,0.63803 c -0.0813,0.0303 -0.17363,0.07579 -0.3638,0.07579 -0.4079,0 -0.59532,-0.249424 -0.59532,-0.622871 0,-0.340375 0.2136,-0.582909 0.53882,-0.582909 0.38309,0 0.50849,0.279738 0.50849,0.650434 h -0.82131 c 0,0.227376 0.17777,0.383092 0.37896,0.383092 0.13919,0 0.3018,-0.07166 0.35416,-0.114378 z m 0,0"
       id="path340" />
    <path
       style="fill:#5c306e;fill-opacity:1;fill-rule:nonzero;stroke:none;stroke-width:0.35277778"
       d="m 112.16423,48.595623 c 0.2384,0 0.33761,-0.237021 0.33761,-0.428569 0,-0.214976 -0.11024,-0.434082 -0.34037,-0.434082 -0.23014,0 -0.31971,0.217731 -0.31558,0.427192 -0.004,0.180524 0.0896,0.435459 0.31834,0.435459 m 0.34726,-0.01792 h -0.005 c -0.0565,0.08682 -0.18741,0.190168 -0.39136,0.190168 -0.34865,0 -0.49472,-0.310056 -0.49472,-0.622871 0,-0.308681 0.1626,-0.582909 0.49609,-0.582909 0.19982,0 0.31557,0.07992 0.38172,0.186034 h 0.004 v -0.700046 h 0.21222 v 1.692233 h -0.20258 z m 0,0"
       id="path342" />
    <path
       style="fill:#5c306e;fill-opacity:1;fill-rule:nonzero;stroke:none;stroke-width:0.35277778"
       d="m 113.10267,47.589656 h 0.21221 v 1.150662 h -0.21221 z m 0.226,-0.257694 h -0.23978 v -0.2384 h 0.23978 z m 0,0"
       id="path344" />
    <path
       style="fill:#5c306e;fill-opacity:1;fill-rule:nonzero;stroke:none;stroke-width:0.35277778"
       d="m 114.43385,47.783959 c -0.0813,-0.03443 -0.16261,-0.05099 -0.23013,-0.05099 -0.23702,0 -0.37069,0.212217 -0.37069,0.431327 0,0.205327 0.11024,0.431324 0.38447,0.431324 0.0717,0 0.16261,-0.02205 0.22738,-0.06615 l 0.0165,0.190172 c -0.0882,0.04134 -0.19017,0.04823 -0.26596,0.04823 -0.34727,0 -0.58705,-0.274228 -0.58705,-0.603578 0,-0.350023 0.23427,-0.602202 0.58705,-0.602202 0.0854,0 0.19568,0.02067 0.25631,0.04547 z m 0,0"
       id="path346" />
    <path
       style="fill:#5c306e;fill-opacity:1;fill-rule:nonzero;stroke:none;stroke-width:0.35277778"
       d="m 115.38883,48.191858 c -0.0455,0 -0.0909,-0.0041 -0.13504,-0.0041 -0.11576,0 -0.39964,0.01792 -0.39964,0.220486 0,0.122646 0.11714,0.187413 0.2136,0.187413 0.21084,0 0.32108,-0.130912 0.32108,-0.303167 z m -0.62976,-0.520898 c 0.10611,-0.06339 0.23151,-0.107487 0.37896,-0.107487 0.32935,0 0.46302,0.16123 0.46302,0.475424 v 0.475421 c 0,0.130916 0.004,0.191548 0.008,0.226 h -0.19844 v -0.14883 h -0.004 c -0.0496,0.07028 -0.16261,0.175013 -0.35691,0.175013 -0.24804,0 -0.42168,-0.107488 -0.42168,-0.358292 0,-0.289387 0.31557,-0.37896 0.53468,-0.37896 0.0841,0 0.14194,0 0.226,0.0041 0,-0.198437 -0.0717,-0.299032 -0.28526,-0.299032 -0.11851,0 -0.24666,0.04547 -0.33348,0.117133 z m 0,0"
       id="path348" />
    <path
       style="fill:#5c306e;fill-opacity:1;fill-rule:nonzero;stroke:none;stroke-width:0.35277778"
       d="m 115.95796,47.589656 h 0.19844 V 47.7564 h 0.004 c 0.0813,-0.133671 0.19706,-0.194303 0.36655,-0.194303 0.1323,0 0.26597,0.06752 0.3266,0.223241 0.0785,-0.163989 0.25218,-0.223241 0.35554,-0.223241 0.29352,0 0.39963,0.190168 0.39963,0.439593 v 0.738628 h -0.21222 v -0.686262 c 0,-0.14194 -0.0331,-0.321084 -0.20395,-0.321084 -0.21773,0 -0.30317,0.212217 -0.30317,0.427192 v 0.580154 h -0.21222 v -0.686262 c 0,-0.14194 -0.0345,-0.321084 -0.20533,-0.321084 -0.21635,0 -0.30179,0.212217 -0.30179,0.427192 v 0.580154 h -0.21221 z m 0,0"
       id="path350" />
    <path
       style="fill:#5c306e;fill-opacity:1;fill-rule:nonzero;stroke:none;stroke-width:0.35277778"
       d="m 118.71128,48.054056 c 0,-0.175013 -0.10335,-0.321084 -0.28663,-0.321084 -0.20808,0 -0.29352,0.172254 -0.30868,0.321084 z m 0.1378,0.63803 c -0.0813,0.0303 -0.175,0.07579 -0.3638,0.07579 -0.4079,0 -0.59531,-0.248045 -0.59531,-0.622871 0,-0.340375 0.2136,-0.582909 0.53882,-0.582909 0.38309,0 0.50711,0.279738 0.50711,0.650434 h -0.81993 c 0,0.227376 0.17777,0.383092 0.37896,0.383092 0.13918,0 0.30179,-0.07166 0.35415,-0.115754 z m 0,0"
       id="path352" />
    <path
       style="fill:#5c306e;fill-opacity:1;fill-rule:nonzero;stroke:none;stroke-width:0.35277778"
       d="m 119.22115,47.589656 h 0.20533 v 0.183278 h 0.005 c 0.062,-0.130912 0.21635,-0.210837 0.37621,-0.210837 0.29765,0 0.43132,0.186034 0.43132,0.493335 v 0.684886 h -0.21222 v -0.595312 c 0,-0.268718 -0.0593,-0.399631 -0.24391,-0.412034 -0.24115,0 -0.35002,0.194303 -0.35002,0.474045 v 0.533301 h -0.21222 z m 0,0"
       id="path354" />
    <path
       style="fill:#5c306e;fill-opacity:1;fill-rule:nonzero;stroke:none;stroke-width:0.35277778"
       d="m 121.21242,47.760534 h -0.30455 v 0.629762 c 0,0.132291 0.0813,0.205327 0.17777,0.205327 0.0662,0 0.113,-0.02067 0.14469,-0.03996 v 0.179144 c -0.0482,0.01379 -0.11299,0.03305 -0.18052,0.03305 -0.2191,0 -0.35415,-0.104729 -0.35415,-0.33486 v -0.672482 h -0.26045 v -0.170879 h 0.26045 v -0.265963 l 0.21221,-0.0689 v 0.334864 h 0.30455 z m 0,0"
       id="path356" />
    <path
       style="fill:#5c306e;fill-opacity:1;fill-rule:nonzero;stroke:none;stroke-width:0.35277778"
       d="m 74.563072,50.373295 c 0,-0.175013 -0.104733,-0.319705 -0.286632,-0.319705 -0.208086,0 -0.293522,0.170875 -0.308681,0.319705 z m 0.136426,0.63941 c -0.07993,0.02893 -0.173634,0.07441 -0.362426,0.07441 -0.4079,0 -0.595313,-0.249425 -0.595313,-0.622872 0,-0.341753 0.213597,-0.581533 0.538815,-0.581533 0.383092,0 0.508494,0.278363 0.508494,0.649055 h -0.821309 c 0,0.227379 0.177765,0.383096 0.378961,0.383096 0.139182,0 0.301791,-0.07166 0.352778,-0.115754 z m 0,0"
       id="path358" />
    <path
       style="fill:#5c306e;fill-opacity:1;fill-rule:nonzero;stroke:none;stroke-width:0.35277778"
       d="m 75.684796,50.079769 h -0.30455 v 0.631145 c 0,0.132291 0.08131,0.203948 0.177769,0.203948 0.06615,0 0.112998,-0.02067 0.144695,-0.03996 v 0.179144 c -0.04686,0.01379 -0.113002,0.03306 -0.180523,0.03306 -0.217731,0 -0.354158,-0.103353 -0.354158,-0.334864 v -0.67249 H 74.90896 v -0.170857 h 0.259069 v -0.265963 l 0.212217,-0.0689 v 0.334864 h 0.30455 z m 0,0"
       id="path360" />
    <path
       style="fill:#5c306e;fill-opacity:1;fill-rule:nonzero;stroke:none;stroke-width:0.35277778"
       d="m 77.046296,50.914862 c 0.2384,0 0.337619,-0.237021 0.337619,-0.428569 0,-0.213596 -0.110243,-0.432703 -0.340374,-0.432703 -0.230135,0 -0.319705,0.216351 -0.315571,0.425813 -0.0041,0.180524 0.08957,0.435459 0.318326,0.435459 m 0.347267,-0.01792 h -0.0041 c -0.05788,0.08682 -0.187413,0.190169 -0.39412,0.190169 -0.347268,0 -0.493339,-0.310057 -0.493339,-0.622872 0,-0.30868 0.16261,-0.582912 0.496094,-0.582912 0.201193,0 0.31695,0.07993 0.381716,0.186037 h 0.0041 v -0.700045 h 0.212217 v 1.692233 h -0.202569 z m 0,0"
       id="path362" />
    <path
       style="fill:#5c306e;fill-opacity:1;fill-rule:nonzero;stroke:none;stroke-width:0.35277778"
       d="m 78.702697,50.373295 c 0,-0.175013 -0.104729,-0.319705 -0.286632,-0.319705 -0.208082,0 -0.293522,0.170875 -0.30868,0.319705 z m 0.136426,0.63941 c -0.07992,0.02893 -0.173634,0.07441 -0.362422,0.07441 -0.4079,0 -0.595313,-0.249425 -0.595313,-0.622872 0,-0.341753 0.213596,-0.581533 0.538812,-0.581533 0.383095,0 0.508497,0.278363 0.508497,0.649055 h -0.821312 c 0,0.227379 0.177768,0.383096 0.37896,0.383096 0.139182,0 0.301791,-0.07166 0.352778,-0.115754 z m 0,0"
       id="path364" />
    <path
       style="fill:#5c306e;fill-opacity:1;fill-rule:nonzero;stroke:none;stroke-width:0.35277778"
       d="m 79.127134,50.833557 c 0.08268,0.05375 0.202573,0.08131 0.263205,0.08131 0.09784,0 0.21773,-0.03996 0.21773,-0.163986 0,-0.210841 -0.498848,-0.191547 -0.498848,-0.515387 0,-0.2384 0.177764,-0.352778 0.406519,-0.352778 0.09784,0 0.180524,0.0193 0.263204,0.0441 l -0.01792,0.184658 c -0.04823,-0.02893 -0.17363,-0.05788 -0.223241,-0.05788 -0.108864,0 -0.202572,0.0441 -0.202572,0.139181 0,0.234266 0.497473,0.16812 0.497473,0.534677 0,0.24667 -0.195682,0.359668 -0.401009,0.359668 -0.108864,0 -0.219107,-0.01238 -0.315571,-0.06477 z m 0,0"
       id="path366" />
    <path
       style="fill:#5c306e;fill-opacity:1;fill-rule:nonzero;stroke:none;stroke-width:0.35277778"
       d="m 81.27136,50.05359 c -0.230131,0 -0.340374,0.219107 -0.340374,0.432703 0,0.191548 0.09784,0.428569 0.337619,0.428569 0.228755,0 0.32246,-0.25356 0.318326,-0.435459 0.0041,-0.206706 -0.08682,-0.425813 -0.315571,-0.425813 m -0.552591,-0.144695 h 0.202572 v 0.162609 h 0.0041 c 0.0565,-0.08544 0.187413,-0.190172 0.391364,-0.190172 0.333485,0 0.496094,0.272853 0.496094,0.582912 0,0.315571 -0.14745,0.622872 -0.494714,0.622872 -0.202572,0 -0.318329,-0.07992 -0.383096,-0.184655 h -0.0041 v 0.629762 h -0.212217 z m 0,0"
       id="path368" />
    <path
       style="fill:#5c306e;fill-opacity:1;fill-rule:nonzero;stroke:none;stroke-width:0.35277778"
       d="m 82.096807,49.908895 h 0.198438 v 0.177768 h 0.0055 c 0.0565,-0.118512 0.177769,-0.205331 0.299036,-0.205331 0.06339,0 0.09508,0.0069 0.140561,0.01654 v 0.188793 c -0.03859,-0.01517 -0.08131,-0.0193 -0.117137,-0.0193 -0.190168,0 -0.314191,0.179144 -0.314191,0.468531 v 0.523656 h -0.212217 z m 0,0"
       id="path370" />
    <path
       style="fill:#5c306e;fill-opacity:1;fill-rule:nonzero;stroke:none;stroke-width:0.35277778"
       d="m 83.48587,50.914862 c 0.246669,0 0.358288,-0.225997 0.358288,-0.431324 0,-0.217731 -0.133667,-0.429948 -0.358288,-0.429948 -0.228755,0 -0.362426,0.212217 -0.362426,0.429948 0,0.205327 0.111622,0.431324 0.362426,0.431324 m 0,-1.03353 c 0.348643,0 0.584288,0.253559 0.584288,0.602206 0,0.32935 -0.239779,0.603578 -0.584288,0.603578 -0.348643,0 -0.587047,-0.274228 -0.587047,-0.603578 0,-0.348647 0.234269,-0.602206 0.587047,-0.602206"
       id="path372" />
    <path
       style="fill:#5c306e;fill-opacity:1;fill-rule:nonzero;stroke:none;stroke-width:0.35277778"
       d="m 84.821187,50.914862 c 0.239779,0 0.338998,-0.237021 0.338998,-0.428569 0,-0.213596 -0.110243,-0.432703 -0.341753,-0.432703 -0.230131,0 -0.319705,0.216351 -0.315571,0.425813 -0.0041,0.180524 0.09095,0.435459 0.318326,0.435459 m 0.347267,-0.01792 h -0.0041 c -0.0565,0.08682 -0.187414,0.190169 -0.392741,0.190169 -0.347267,0 -0.493338,-0.310057 -0.493338,-0.622872 0,-0.30868 0.162609,-0.582912 0.494714,-0.582912 0.201196,0 0.31695,0.07993 0.38172,0.186037 h 0.0055 v -0.700045 h 0.212217 v 1.692233 h -0.203948 z m 0,0"
       id="path374" />
    <path
       style="fill:#5c306e;fill-opacity:1;fill-rule:nonzero;stroke:none;stroke-width:0.35277778"
       d="m 86.75044,51.059557 h -0.205327 v -0.183279 h -0.0041 c -0.06339,0.130913 -0.216352,0.210838 -0.376203,0.210838 -0.297656,0 -0.431327,-0.184655 -0.431327,-0.494715 V 49.908895 H 85.9457 v 0.595312 c 0,0.268718 0.05926,0.39963 0.243914,0.410655 0.241156,0 0.348644,-0.194303 0.348644,-0.474046 v -0.531921 h 0.212217 z m 0,0"
       id="path376" />
    <path
       style="fill:#5c306e;fill-opacity:1;fill-rule:nonzero;stroke:none;stroke-width:0.35277778"
       d="m 87.13905,49.908895 h 0.212217 v 1.150662 H 87.13905 Z m 0.225996,-0.257694 h -0.2384 v -0.2384 h 0.2384 z m 0,0"
       id="path378" />
    <path
       style="fill:#5c306e;fill-opacity:1;fill-rule:nonzero;stroke:none;stroke-width:0.35277778"
       d="m 88.351723,50.079769 h -0.304549 v 0.631145 c 0,0.132291 0.08131,0.203948 0.177769,0.203948 0.06615,0 0.112998,-0.02067 0.144695,-0.03996 v 0.179144 c -0.04823,0.01379 -0.113001,0.03306 -0.180523,0.03306 -0.219111,0 -0.354158,-0.103353 -0.354158,-0.334864 v -0.67249 h -0.259069 v -0.170857 h 0.259069 v -0.265963 l 0.212217,-0.0689 v 0.334864 h 0.304549 z m 0,0"
       id="path380" />
    <path
       style="fill:#5c306e;fill-opacity:1;fill-rule:nonzero;stroke:none;stroke-width:0.35277778"
       d="m 88.532243,50.833557 c 0.08269,0.05375 0.202573,0.08131 0.263208,0.08131 0.09784,0 0.21773,-0.03996 0.21773,-0.163986 0,-0.210841 -0.49885,-0.191547 -0.49885,-0.515387 0,-0.2384 0.177768,-0.352778 0.406521,-0.352778 0.09784,0 0.180526,0.0193 0.263205,0.0441 l -0.01791,0.184658 c -0.04823,-0.02893 -0.173635,-0.05788 -0.223242,-0.05788 -0.108868,0 -0.202573,0.0441 -0.202573,0.139181 0,0.234266 0.497469,0.16812 0.497469,0.534677 0,0.24667 -0.195677,0.359668 -0.401005,0.359668 -0.107487,0 -0.219109,-0.01238 -0.315574,-0.06477 z m 0,0"
       id="path382" />
    <path
       style="fill:#5c306e;fill-opacity:1;fill-rule:nonzero;stroke:none;stroke-width:0.35277778"
       d="m 90.591035,50.914862 c 0.2384,0 0.337619,-0.237021 0.337619,-0.428569 0,-0.213596 -0.110244,-0.432703 -0.340376,-0.432703 -0.23013,0 -0.319704,0.216351 -0.315569,0.425813 -0.0041,0.180524 0.08957,0.435459 0.318326,0.435459 m 0.347265,-0.01792 h -0.0055 c -0.0565,0.08682 -0.187412,0.190169 -0.39274,0.190169 -0.347263,0 -0.493339,-0.310057 -0.493339,-0.622872 0,-0.30868 0.16261,-0.582912 0.496094,-0.582912 0.201197,0 0.315571,0.07993 0.381717,0.186037 h 0.0041 v -0.700045 h 0.21222 v 1.692233 h -0.20257 z m 0,0"
       id="path384" />
    <path
       style="fill:#5c306e;fill-opacity:1;fill-rule:nonzero;stroke:none;stroke-width:0.35277778"
       d="m 92.247435,50.373295 c 0,-0.175013 -0.10473,-0.319705 -0.286631,-0.319705 -0.208084,0 -0.293524,0.170875 -0.308682,0.319705 z m 0.136427,0.63941 c -0.07992,0.02893 -0.17363,0.07441 -0.362424,0.07441 -0.4079,0 -0.595312,-0.249425 -0.595312,-0.622872 0,-0.341753 0.213595,-0.581533 0.538811,-0.581533 0.383095,0 0.508497,0.278363 0.508497,0.649055 h -0.821312 c 0,0.227379 0.177769,0.383096 0.37896,0.383096 0.139182,0 0.301792,-0.07166 0.35278,-0.115754 z m 0,0"
       id="path386" />
    <path
       style="fill:#5c306e;fill-opacity:1;fill-rule:nonzero;stroke:none;stroke-width:0.35277778"
       d="m 93.298878,50.833557 c 0.08406,0.05375 0.202573,0.08131 0.264584,0.08131 0.09646,0 0.216352,-0.03996 0.216352,-0.163986 0,-0.210841 -0.49885,-0.191547 -0.49885,-0.515387 0,-0.2384 0.177768,-0.352778 0.406524,-0.352778 0.09922,0 0.18052,0.0193 0.263205,0.0441 l -0.01791,0.184658 c -0.04685,-0.02893 -0.173632,-0.05788 -0.223239,-0.05788 -0.108868,0 -0.202573,0.0441 -0.202573,0.139181 0,0.234266 0.498848,0.16812 0.498848,0.534677 0,0.24667 -0.197056,0.359668 -0.402389,0.359668 -0.107484,0 -0.219107,-0.01238 -0.315568,-0.06477 z m 0,0"
       id="path388" />
    <path
       style="fill:#5c306e;fill-opacity:1;fill-rule:nonzero;stroke:none;stroke-width:0.35277778"
       d="m 94.945635,50.511097 c -0.0441,0 -0.08957,-0.0041 -0.135046,-0.0041 -0.11438,0 -0.398257,0.01792 -0.398257,0.220486 0,0.122647 0.117134,0.187414 0.213599,0.187414 0.210841,0 0.319704,-0.130913 0.319704,-0.301791 z m -0.628386,-0.520898 c 0.106109,-0.06339 0.231511,-0.107488 0.37896,-0.107488 0.329351,0 0.463021,0.16123 0.463021,0.475425 v 0.475421 c 0,0.130916 0.0041,0.191548 0.0083,0.226 h -0.198437 v -0.14883 h -0.0041 c -0.04961,0.07028 -0.162608,0.176389 -0.356912,0.176389 -0.248045,0 -0.421677,-0.108864 -0.421677,-0.359668 0,-0.288007 0.315568,-0.378961 0.534675,-0.378961 0.08406,0 0.141941,0 0.224621,0.0055 0,-0.199817 -0.07165,-0.300412 -0.283877,-0.300412 -0.118507,0 -0.248044,0.04547 -0.333484,0.117133 z m 0,0"
       id="path390" />
    <path
       style="fill:#5c306e;fill-opacity:1;fill-rule:nonzero;stroke:none;stroke-width:0.35277778"
       d="m 95.517523,49.908895 h 0.205328 v 0.183278 h 0.0055 c 0.06201,-0.130912 0.214974,-0.210841 0.376206,-0.210841 0.297656,0 0.431324,0.186037 0.431324,0.493339 v 0.684886 h -0.212217 v -0.595313 c 0,-0.268718 -0.05926,-0.39963 -0.243912,-0.412034 -0.24116,0 -0.350022,0.194304 -0.350022,0.475425 v 0.531922 h -0.212217 z m 0,0"
       id="path392" />
    <path
       style="fill:#5c306e;fill-opacity:1;fill-rule:nonzero;stroke:none;stroke-width:0.35277778"
       d="m 97.508788,50.079769 h -0.304546 v 0.631145 c 0,0.132291 0.07993,0.203948 0.177763,0.203948 0.06615,0 0.112998,-0.02067 0.144696,-0.03996 v 0.179144 c -0.04823,0.01379 -0.112999,0.03306 -0.180523,0.03306 -0.219107,0 -0.354158,-0.103353 -0.354158,-0.334864 v -0.67249 h -0.259069 v -0.170857 h 0.259069 v -0.265963 l 0.212222,-0.0689 v 0.334864 h 0.304546 z m 0,0"
       id="path394" />
    <path
       style="fill:#5c306e;fill-opacity:1;fill-rule:nonzero;stroke:none;stroke-width:0.35277778"
       d="m 98.273598,49.423825 h 0.24529 l -0.294899,0.325215 h -0.151585 z m 0.24529,0.94947 c 0,-0.175013 -0.103352,-0.321085 -0.286631,-0.321085 -0.206706,0 -0.293521,0.172255 -0.308681,0.321085 z m 0.137803,0.63803 c -0.0813,0.0303 -0.17363,0.07579 -0.362424,0.07579 -0.409278,0 -0.595312,-0.248045 -0.595312,-0.622872 0,-0.340377 0.213598,-0.582912 0.537437,-0.582912 0.384472,0 0.508493,0.279742 0.508493,0.650434 h -0.821309 c 0,0.227379 0.177765,0.383096 0.378962,0.383096 0.140557,0 0.301789,-0.07166 0.354153,-0.114378 z m 0,0"
       id="path396" />
    <path
       style="fill:#b0c707;fill-opacity:1;fill-rule:nonzero;stroke:none;stroke-width:0.35277778"
       d="m 73.016914,51.110544 c 0,0.07166 -0.05788,0.129536 -0.129537,0.129536 -0.07028,0 -0.128157,-0.05788 -0.128157,-0.129536 v -3.924653 c 0,-0.07028 0.05788,-0.128157 0.128157,-0.128157 0.07166,0 0.129537,0.05788 0.129537,0.128157 z m 0,0"
       id="path398" />
  </g>
</svg>
