<?xml version="1.0" encoding="UTF-8" standalone="no"?>
<!-- Created with Inkscape (http://www.inkscape.org/) -->

<svg
   width="56.640656mm"
   height="32.504574mm"
   viewBox="0 0 56.640656 32.504574"
   version="1.1"
   id="svg1"
   xmlns="http://www.w3.org/2000/svg"
   xmlns:svg="http://www.w3.org/2000/svg">
  <defs
     id="defs1" />
  <g
     id="layer1"
     transform="translate(-69.952683,-114.83226)">
    <g
       id="_630010784"
       transform="matrix(0.26458333,0,0,0.26458333,75.012424,119.53898)">
		<polygon
   fill="#fecd1f"
   points="45.241,85.665 40.422,85.665 40.422,58.169 43.171,58.169 45.241,58.169 "
   id="polygon1" />

		<polygon
   fill="#e62f2e"
   points="45.241,58.169 40.422,58.169 40.422,30.53 43.171,30.53 45.241,30.53 "
   id="polygon2" />

		<path
   fill="#1d1d1e"
   d="m 19.36,13.268 c 0.057,-0.285 0.057,-0.625 0.057,-0.936 0,-0.172 0,-0.398 0,-0.625 2.721,-0.027 5.131,-2.012 5.131,-4.279 0,-1.162 -0.766,-2.014 -1.19,-2.551 0.113,0 0.198,-0.029 0.312,-0.057 0.397,0.34 1.531,1.586 1.531,3.146 -0.001,2.722 -2.722,5.243 -5.841,5.302 z M 16.611,3.799 c -0.057,-0.313 -0.17,-0.566 -0.34,-0.822 0,-0.283 0.113,-0.539 0.567,-0.311 -0.255,0.254 -0.057,0.68 -0.057,0.68 0,0 0.482,-0.227 0.397,-0.566 0.737,0.197 0.198,1.162 -0.567,1.019 z M 15.959,5.188 C 15.874,4.792 15.675,4.366 15.392,4.055 15.165,3.772 14.768,3.43 14.229,3.43 c -0.255,0 -0.68,0.113 -0.935,0.227 -0.085,-0.17 -0.284,-0.594 -0.284,-0.793 0,-0.197 0.34,-0.396 0.992,-0.396 1.417,0 2.268,0.623 2.268,1.701 0.001,0.367 -0.169,0.736 -0.311,1.019 z m 3.657,18.283 c 0.17,0 0.255,0.029 0.34,0.057 0.397,1.105 1.984,3.203 2.041,3.316 h 0.028 0.028 c 0.369,-0.057 1.361,-0.197 2.183,-0.197 h 0.028 c 0.085,0 0.17,0 0.255,0.057 0.057,0.057 0.085,0.141 0.085,0.283 0,0.199 -0.113,0.539 -0.198,0.709 -0.284,-0.313 -0.766,-0.453 -1.502,-0.453 -0.227,0 -0.51,0.057 -0.652,0.084 l -0.057,0.029 h -0.057 l 0.425,0.453 c 0.68,0.652 1.248,1.219 1.248,1.615 0,0.227 -0.227,0.539 -0.425,0.652 -0.057,-0.68 -0.766,-1.615 -1.446,-2.154 l -0.057,-0.057 -0.028,0.256 c 0,0.17 -0.028,0.424 -0.028,0.68 0,1.359 -0.113,1.559 -0.595,1.559 -0.057,0 -0.17,-0.027 -0.255,-0.057 0.284,-0.313 0.369,-0.736 0.369,-1.502 v -0.34 -0.283 c 0,-0.285 0.028,-0.512 0.057,-0.709 l 0.028,-0.086 -0.085,-0.027 C 21.119,27.327 20.722,27.27 20.41,27.27 c -0.652,0 -1.105,0.057 -1.417,0.369 -0.227,-0.17 -0.453,-0.482 -0.453,-0.652 0,-0.283 0.17,-0.313 0.396,-0.313 0.142,0 0.227,0.029 0.397,0.029 0.284,0.057 0.708,0.113 1.587,0.113 h 0.057 l -0.028,-0.057 c -0.227,-0.623 -0.822,-1.559 -1.814,-2.75 0.084,-0.339 0.169,-0.538 0.481,-0.538 z m -8.476,3.289 -0.028,0.057 h 0.057 c 0.878,0 1.304,-0.057 1.587,-0.113 0.142,0 0.255,-0.029 0.368,-0.029 0.227,0 0.397,0.029 0.397,0.313 0,0.17 -0.198,0.482 -0.425,0.652 -0.312,-0.313 -0.765,-0.369 -1.417,-0.369 -0.312,0 -0.737,0.057 -0.936,0.086 h -0.028 l -0.057,0.027 0.028,0.086 c 0.028,0.197 0.057,0.424 0.057,0.709 v 0.283 l -0.028,0.34 c 0,0.766 0.113,1.189 0.368,1.502 -0.057,0.029 -0.17,0.057 -0.227,0.057 -0.482,0 -0.624,-0.199 -0.624,-1.559 0,-0.256 0,-0.51 0,-0.68 l -0.028,-0.256 -0.057,0.057 C 9.466,28.462 8.758,29.398 8.701,30.077 8.503,29.964 8.276,29.651 8.276,29.425 c 0,-0.396 0.567,-0.963 1.248,-1.615 L 9.892,27.414 9.949,27.357 9.836,27.328 c -0.17,-0.027 -0.425,-0.084 -0.652,-0.084 -0.737,0 -1.219,0.141 -1.502,0.453 -0.113,-0.17 -0.198,-0.51 -0.198,-0.709 0,-0.143 0.028,-0.227 0.085,-0.283 0.057,-0.056 0.17,-0.057 0.255,-0.057 h 0.028 c 0.822,0 1.814,0.141 2.183,0.197 h 0.029 v 0 c 0.085,-0.113 1.644,-2.211 2.069,-3.316 0.085,-0.027 0.17,-0.057 0.34,-0.057 0.312,0 0.397,0.199 0.482,0.539 -0.993,1.191 -1.588,2.126 -1.815,2.749 z M 6.888,7.967 C 6.888,6.406 8.022,5.16 8.418,4.821 8.503,4.848 8.617,4.878 8.702,4.878 8.277,5.415 7.54,6.266 7.54,7.428 c 0,2.295 2.438,4.279 5.216,4.279 -0.028,0.199 -0.028,0.396 -0.028,0.625 0,0.34 0.028,0.65 0.057,0.936 -3.147,0 -5.897,-2.553 -5.897,-5.301 z m 21.033,4.846 c 1.389,2.211 2.495,2.184 4.167,2.184 -1.389,-1.049 -2.296,-2.41 -2.721,-3.09 L 26.787,7.796 C 26.56,6.521 25.88,5.331 24.916,4.452 c 0.312,-0.143 0.595,-0.256 0.765,-0.396 -1.672,0 -3.345,-0.852 -4.252,-0.852 -0.595,0 -0.964,0.369 -0.964,0.822 0.028,0.51 0.567,1.049 1.531,1.049 0.227,0 0.51,-0.027 0.822,-0.084 0.539,0.736 0.963,1.416 0.963,2.381 0,1.785 -2.126,3.203 -4.309,3.203 -0.113,0 -0.255,0 -0.368,-0.029 -0.199,-0.453 -0.851,-1.189 -0.851,-2.041 0,-1.416 0.936,-2.607 0.936,-4.025 0,-0.879 -0.425,-1.416 -0.595,-1.643 0.255,-0.256 0.567,-0.539 0.624,-0.766 -0.142,0.084 -0.34,0.084 -0.595,0.084 -1.049,0 -1.899,-0.283 -2.721,-0.283 -0.482,0 -0.596,0.143 -0.596,0.283 0,0.057 0,0.113 0,0.143 C 15.136,2.212 14.966,2.185 14.767,2.155 14.54,2.098 14.286,2.071 14.002,2.071 c -1.021,0 -1.361,0.424 -1.361,0.793 0,0.283 0.227,0.85 0.51,1.275 0.397,-0.197 0.851,-0.311 1.077,-0.311 0.539,0 0.992,0.48 1.248,1.105 -0.34,0.027 -0.425,0.057 -0.794,0.057 -0.964,0 -1.644,-0.369 -1.786,-0.369 l -0.028,0.027 c 0,0.143 0.283,0.512 0.822,0.709 0.737,0.256 1.814,0.369 1.984,0.396 0,0.029 -0.17,0.398 -0.397,0.455 -0.028,0 -0.057,0 -0.113,0 C 14.4,6.067 14.201,6.01 13.238,5.641 c -0.029,-0.027 -0.057,0 -0.057,0.029 0,0.369 0.992,1.219 1.871,1.531 -0.737,0.936 -1.644,1.898 -2.069,3.344 -0.142,0.029 -0.255,0.029 -0.369,0.029 -2.183,0 -4.337,-1.418 -4.337,-3.203 0,-0.965 0.425,-1.645 0.964,-2.381 0.312,0.057 0.595,0.084 0.822,0.084 0.992,0 1.53,-0.539 1.559,-1.049 0,-0.453 -0.368,-0.822 -0.963,-0.822 -0.907,0 -2.58,0.852 -4.252,0.852 0.17,0.141 0.425,0.254 0.765,0.396 -0.993,0.88 -1.645,2.069 -1.9,3.344 L 2.721,11.906 C 2.268,12.586 1.36,13.948 0,14.997 c 1.644,0 2.75,0.027 4.167,-2.184 l 1.304,-2.125 c 0.113,0.283 0.227,0.539 0.369,0.793 l -2.608,4.195 c -0.454,0.709 -1.361,2.041 -2.721,3.119 1.644,0 2.75,0.027 4.167,-2.184 l 2.24,-3.629 c 0.17,0.17 0.368,0.369 0.539,0.539 L 4.28,18.596 c -0.454,0.709 -1.333,2.041 -2.722,3.09 1.673,0 2.75,0.057 4.167,-2.184 l 3.118,-4.959 c 0.199,0.141 0.397,0.254 0.624,0.367 l -3.798,6.066 c -0.425,0.709 -1.332,2.041 -2.721,3.09 1.672,0 2.778,0.057 4.167,-2.182 l 3.912,-6.236 c 0.227,0.084 0.454,0.17 0.709,0.254 l -4.422,7.031 c -0.425,0.707 -1.332,2.068 -2.721,3.117 1.672,0 2.778,0.029 4.195,-2.211 l 4.677,-7.512 c 0.057,0.027 0.113,0.027 0.142,0.027 0.142,0.398 0.227,0.795 0.227,1.164 0,2.352 -1.559,4.449 -3.402,6.064 0.113,0.057 0.312,0.057 0.51,0.057 0.369,0 0.624,0 0.794,-0.027 -0.425,0.963 -1.361,2.238 -1.814,2.891 C 9.298,26.39 8.42,26.306 7.853,26.306 c -0.624,0 -0.68,0.367 -0.68,0.68 0,0.539 0.255,0.992 0.567,1.219 0.085,-0.283 0.312,-0.652 1.446,-0.652 0.028,0 0.057,0 0.113,0 -0.34,0.369 -1.36,1.191 -1.36,1.871 0,0.453 0.481,1.105 1.134,1.105 -0.028,-0.141 -0.028,-0.283 -0.028,-0.369 0,-0.537 0.482,-1.189 0.878,-1.615 0,0.113 0,0.113 0,0.256 0,1.303 0.113,1.871 0.936,1.871 0.397,0 0.652,-0.199 0.765,-0.283 -0.539,-0.482 -0.567,-0.852 -0.567,-1.588 0,-0.17 0,-0.369 0,-0.623 0,-0.143 0,-0.369 -0.028,-0.539 0.312,-0.029 0.425,-0.029 0.652,-0.029 0,0 1.134,-0.084 1.417,0.512 0.312,-0.285 0.766,-0.682 0.766,-1.135 0,-0.313 -0.142,-0.623 -0.737,-0.623 -0.227,0 -0.935,0.113 -1.531,0.113 0.17,-0.34 0.879,-1.389 1.502,-2.127 0.085,0.283 0.227,0.596 0.539,0.852 0.057,-0.482 0.34,-2.014 1.105,-2.893 0.085,0.596 0.199,1.219 0.199,2.523 0,3.174 -0.766,5.527 -2.381,5.98 0.199,0.369 0.652,0.709 1.105,0.709 0.595,0 0.936,-0.68 1.248,-1.303 0.17,0.453 0.652,1.586 1.134,1.586 0.482,0 0.936,-1.133 1.105,-1.586 0.34,0.623 0.652,1.303 1.247,1.303 0.482,0 0.936,-0.34 1.134,-0.709 -1.616,-0.453 -2.381,-2.807 -2.381,-5.98 0,-1.305 0.113,-1.928 0.198,-2.523 0.766,0.879 1.049,2.41 1.077,2.893 0.34,-0.256 0.482,-0.568 0.567,-0.852 0.624,0.738 1.333,1.787 1.474,2.127 -0.595,0 -1.304,-0.113 -1.531,-0.113 -0.567,0 -0.708,0.311 -0.708,0.623 0,0.453 0.454,0.85 0.765,1.135 0.255,-0.596 1.417,-0.512 1.417,-0.512 0.227,0 0.34,0 0.652,0.029 -0.028,0.17 -0.057,0.396 -0.028,0.539 0,0.254 0,0.453 0,0.623 0,0.736 -0.028,1.105 -0.567,1.588 0.085,0.084 0.369,0.283 0.766,0.283 0.822,0 0.935,-0.568 0.935,-1.871 0,-0.143 0,-0.143 0,-0.256 0.397,0.426 0.879,1.078 0.879,1.615 0,0.086 0,0.229 -0.028,0.369 0.624,0 1.105,-0.652 1.105,-1.105 0,-0.68 -1.021,-1.502 -1.332,-1.871 0.057,0 0.085,0 0.113,0 1.105,0 1.332,0.369 1.446,0.652 0.312,-0.227 0.567,-0.68 0.567,-1.219 0,-0.313 -0.085,-0.68 -0.681,-0.68 -0.567,0 -1.474,0.084 -2.069,0.197 -0.481,-0.652 -1.389,-1.928 -1.842,-2.891 0.198,0.027 0.425,0.027 0.822,0.027 0.199,0 0.397,0 0.51,-0.057 -1.842,-1.615 -3.401,-3.713 -3.401,-6.064 0,-0.369 0.085,-0.766 0.198,-1.164 0.057,0 0.114,0 0.17,-0.027 l 4.677,7.512 c 1.417,2.24 2.522,2.211 4.167,2.211 -1.36,-1.049 -2.268,-2.41 -2.721,-3.117 l -4.394,-7.031 c 0.227,-0.084 0.482,-0.17 0.708,-0.254 l 3.884,6.236 c 1.417,2.238 2.522,2.182 4.195,2.182 -1.389,-1.049 -2.296,-2.381 -2.722,-3.09 L 22.622,14.91 c 0.227,-0.113 0.425,-0.227 0.624,-0.367 l 3.118,4.959 c 1.389,2.24 2.495,2.184 4.167,2.184 -1.389,-1.049 -2.296,-2.381 -2.721,-3.09 l -3.175,-5.074 c 0.17,-0.17 0.34,-0.369 0.51,-0.539 l 2.268,3.629 c 1.417,2.211 2.495,2.184 4.167,2.184 -1.389,-1.078 -2.268,-2.41 -2.721,-3.119 l -2.608,-4.195 c 0.142,-0.254 0.255,-0.51 0.34,-0.793 z"
   id="path2" />

		<polygon
   fill="#1d1d1e"
   points="43.171,30.672 40.422,30.672 40.422,3.204 45.241,3.204 45.241,30.672 "
   id="polygon3" />

		<polygon
   fill="#1d1d1e"
   points="56.75,7.881 60.066,7.881 60.066,8.93 56.75,8.93 56.75,14.202 55.417,14.202 55.417,2.95 60.264,2.95 60.264,4.026 56.75,4.026 "
   id="polygon4" />

		<path
   fill="#1d1d1e"
   d="m 65.367,9.61 c 0,-0.766 -0.057,-1.303 -0.142,-1.615 -0.198,-0.596 -0.595,-0.906 -1.19,-0.906 -0.851,0 -1.332,0.48 -1.445,1.502 -0.057,0.367 -0.086,0.709 -0.086,1.02 h 2.863 z m 1.247,0.822 h -4.11 v 0.539 c 0,0.793 0.086,1.389 0.227,1.729 0.199,0.51 0.624,0.766 1.219,0.766 0.908,0 1.361,-0.596 1.418,-1.729 h 1.19 c -0.057,1.729 -0.936,2.607 -2.608,2.607 -1.076,0 -1.842,-0.369 -2.238,-1.105 -0.313,-0.539 -0.454,-1.418 -0.454,-2.664 0,-1.389 0.142,-2.381 0.397,-2.977 0.396,-0.936 1.189,-1.418 2.381,-1.418 1.134,0 1.871,0.426 2.239,1.248 0.227,0.51 0.34,1.416 0.34,2.664 v 0.34 z"
   id="path4" />

		<path
   fill="#1d1d1e"
   d="M 72.482,10.348 C 72.482,9.299 72.396,8.534 72.226,8.08 72.029,7.428 71.603,7.088 70.98,7.088 c -0.596,0 -1.021,0.34 -1.248,1.02 -0.142,0.453 -0.198,1.135 -0.198,2.098 0,1.021 0.057,1.758 0.227,2.24 0.228,0.65 0.624,0.963 1.163,0.963 0.68,0 1.105,-0.313 1.332,-0.963 0.14,-0.426 0.226,-1.135 0.226,-2.098 z m 1.247,3.854 h -1.19 l -0.028,-0.906 c -0.425,0.68 -1.049,1.021 -1.814,1.021 -1.021,0 -1.7,-0.455 -2.069,-1.361 -0.255,-0.596 -0.369,-1.531 -0.369,-2.777 0,-1.191 0.143,-2.098 0.426,-2.723 0.369,-0.85 1.021,-1.275 1.984,-1.275 0.766,0 1.361,0.313 1.758,0.936 V 2.95 h 1.247 v 9.75 c -0.002,0.283 0.027,0.795 0.055,1.502 z"
   id="path5" />

		<path
   fill="#1d1d1e"
   d="m 79.794,9.61 c 0,-0.766 -0.057,-1.303 -0.17,-1.615 -0.17,-0.596 -0.566,-0.906 -1.189,-0.906 -0.852,0 -1.333,0.48 -1.446,1.502 -0.028,0.367 -0.057,0.709 -0.057,1.02 h 2.862 z m 1.248,0.822 h -4.11 v 0.539 c 0,0.793 0.057,1.389 0.227,1.729 0.198,0.51 0.595,0.766 1.19,0.766 0.907,0 1.389,-0.596 1.418,-1.729 h 1.219 c -0.086,1.729 -0.964,2.607 -2.637,2.607 -1.077,0 -1.814,-0.369 -2.239,-1.105 -0.283,-0.539 -0.425,-1.418 -0.425,-2.664 0,-1.389 0.113,-2.381 0.368,-2.977 0.397,-0.936 1.219,-1.418 2.409,-1.418 1.105,0 1.843,0.426 2.211,1.248 0.227,0.51 0.369,1.416 0.369,2.664 z"
   id="path6" />

		<path
   fill="#1d1d1e"
   d="M 86.257,7.399 C 86.116,7.372 86.03,7.342 85.974,7.342 c -0.595,0 -1.02,0.199 -1.332,0.566 -0.283,0.342 -0.425,0.822 -0.425,1.447 v 4.846 H 82.97 V 7.795 c 0,-0.537 -0.029,-1.02 -0.057,-1.445 h 1.219 v 1.049 c 0.425,-0.793 1.076,-1.189 1.984,-1.189 0.085,-0.001 0.141,0.396 0.141,1.189 z"
   id="path7" />

		<path
   fill="#1d1d1e"
   d="m 91.105,11.17 v -0.936 h -0.312 c -1.644,0 -2.466,0.566 -2.466,1.672 0,0.992 0.396,1.502 1.162,1.502 0.566,0 0.992,-0.256 1.275,-0.736 0.228,-0.396 0.341,-0.908 0.341,-1.502 z m 1.276,3.032 h -1.189 l -0.029,-1.049 c -0.51,0.766 -1.219,1.164 -2.098,1.164 -0.651,0 -1.162,-0.229 -1.53,-0.652 -0.312,-0.426 -0.481,-0.965 -0.481,-1.645 0,-1.105 0.425,-1.871 1.275,-2.24 0.566,-0.254 1.474,-0.396 2.778,-0.396 v -0.34 c 0,-0.652 -0.057,-1.105 -0.17,-1.361 -0.17,-0.396 -0.51,-0.594 -1.049,-0.594 -0.368,0 -0.68,0.084 -0.936,0.311 -0.255,0.199 -0.368,0.482 -0.368,0.852 V 8.336 H 87.337 V 8.25 c 0,-0.709 0.283,-1.248 0.793,-1.588 0.454,-0.313 1.049,-0.482 1.786,-0.482 0.907,0 1.531,0.227 1.9,0.652 0.313,0.396 0.482,1.049 0.482,1.955 v 2.893 c -0.001,0.963 0.026,1.785 0.083,2.522 z"
   id="path8" />

		<polygon
   fill="#1d1d1e"
   points="94.592,2.95 95.188,2.95 95.811,2.95 95.811,14.202 94.592,14.202 "
   id="polygon8" />

		<polygon
   fill="#1d1d1e"
   points="102.076,2.95 102.729,2.95 103.379,2.95 103.379,14.202 102.076,14.202 "
   id="polygon9" />

		<path
   fill="#1d1d1e"
   d="m 111.146,14.202 h -1.219 V 9.186 c 0,-0.682 -0.057,-1.135 -0.143,-1.391 -0.17,-0.453 -0.537,-0.68 -1.076,-0.68 -0.51,0 -0.936,0.256 -1.219,0.793 -0.227,0.426 -0.369,0.965 -0.369,1.588 v 4.705 h -1.219 v -6.12 c 0,-0.709 -0.027,-1.277 -0.057,-1.73 h 1.219 v 1.078 c 0.426,-0.822 1.105,-1.248 2.041,-1.248 1.361,0 2.041,0.822 2.041,2.438 v 5.583 z"
   id="path9" />

		<path
   fill="#1d1d1e"
   d="m 117.809,12.047 c 0,1.531 -0.822,2.27 -2.467,2.27 -1.588,0 -2.381,-0.822 -2.354,-2.523 h 1.219 c 0,0.17 0,0.311 0.029,0.426 0.057,0.82 0.453,1.246 1.133,1.246 0.795,0 1.191,-0.396 1.191,-1.219 0,-0.426 -0.113,-0.766 -0.369,-1.02 -0.17,-0.172 -0.51,-0.398 -1.049,-0.682 -0.736,-0.396 -1.189,-0.68 -1.389,-0.879 -0.396,-0.367 -0.596,-0.85 -0.596,-1.445 0,-0.68 0.229,-1.189 0.682,-1.531 0.396,-0.34 0.963,-0.51 1.645,-0.51 0.82,0 1.389,0.199 1.729,0.566 0.34,0.398 0.51,0.965 0.539,1.758 h -1.219 c 0,-0.963 -0.369,-1.473 -1.105,-1.473 -0.313,0 -0.568,0.113 -0.766,0.311 -0.17,0.199 -0.283,0.453 -0.283,0.766 0,0.369 0.17,0.652 0.453,0.908 0.17,0.141 0.537,0.367 1.105,0.68 0.623,0.34 1.076,0.623 1.303,0.879 0.369,0.396 0.569,0.879 0.569,1.472 z"
   id="path10" />

		<path
   fill="#1d1d1e"
   d="m 122.684,14.202 c -0.396,0.029 -0.68,0.057 -0.906,0.057 -0.709,0 -1.191,-0.17 -1.447,-0.453 -0.227,-0.283 -0.311,-0.766 -0.311,-1.473 V 7.258 h -1.162 V 6.35 h 1.162 V 4.905 l 1.219,-0.539 V 6.35 h 1.389 v 0.908 h -1.389 v 4.932 c 0,0.426 0.057,0.709 0.197,0.879 0.113,0.141 0.342,0.227 0.682,0.227 0.057,0 0.254,-0.027 0.566,-0.057 z"
   id="path11" />

		<path
   fill="#1d1d1e"
   d="m 125.434,14.202 h -1.219 V 6.35 h 1.219 z m 0.084,-9.75 h -1.359 V 3.12 h 1.359 z"
   id="path12" />

		<path
   fill="#1d1d1e"
   d="m 130.791,14.202 c -0.396,0.029 -0.682,0.057 -0.908,0.057 -0.707,0 -1.189,-0.17 -1.445,-0.453 -0.227,-0.283 -0.311,-0.766 -0.311,-1.473 V 7.258 h -1.164 V 6.35 h 1.164 V 4.905 l 1.219,-0.539 V 6.35 h 1.389 v 0.908 h -1.389 v 4.932 c 0,0.426 0.057,0.709 0.17,0.879 0.141,0.141 0.367,0.227 0.709,0.227 0.057,0 0.254,-0.027 0.566,-0.057 z"
   id="path13" />

		<path
   fill="#1d1d1e"
   d="m 137.65,14.202 h -1.248 v -1.02 c -0.48,0.766 -1.133,1.135 -1.984,1.135 -1.389,0 -2.098,-0.795 -2.098,-2.41 V 6.35 h 1.221 v 5.018 c 0,0.623 0.057,1.105 0.17,1.361 0.17,0.453 0.537,0.68 1.076,0.68 1.021,0 1.531,-0.766 1.531,-2.297 V 6.35 h 1.246 v 6.123 c 0,0.596 0.03,1.192 0.086,1.729 z"
   id="path14" />

		<path
   fill="#1d1d1e"
   d="m 142.922,14.202 c -0.396,0.029 -0.68,0.057 -0.906,0.057 -0.709,0 -1.189,-0.17 -1.445,-0.453 -0.227,-0.283 -0.313,-0.766 -0.313,-1.473 V 7.258 h -1.189 V 6.35 h 1.189 V 4.905 l 1.219,-0.539 V 6.35 h 1.389 v 0.908 h -1.389 v 4.932 c 0,0.426 0.057,0.709 0.17,0.879 0.143,0.141 0.369,0.227 0.709,0.227 0.057,0 0.256,-0.027 0.566,-0.057 z"
   id="path15" />

		<path
   fill="#1d1d1e"
   d="m 148.252,9.61 c 0,-0.766 -0.057,-1.303 -0.143,-1.615 -0.197,-0.596 -0.594,-0.906 -1.189,-0.906 -0.852,0 -1.332,0.48 -1.445,1.502 -0.057,0.367 -0.086,0.709 -0.086,1.02 h 2.863 z m 1.248,0.822 h -4.111 v 0.539 c 0,0.793 0.086,1.389 0.227,1.729 0.199,0.51 0.625,0.766 1.219,0.766 0.908,0 1.361,-0.596 1.418,-1.729 h 1.191 c -0.057,1.729 -0.936,2.607 -2.609,2.607 -1.105,0 -1.842,-0.369 -2.238,-1.105 -0.313,-0.539 -0.453,-1.418 -0.453,-2.664 0,-1.389 0.141,-2.381 0.396,-2.977 0.396,-0.936 1.189,-1.418 2.381,-1.418 1.133,0 1.871,0.426 2.238,1.248 0.229,0.51 0.342,1.416 0.342,2.664 v 0.34 z"
   id="path16" />

		<path
   fill="#1d1d1e"
   d="m 58.224,20.381 c -0.086,-0.027 -0.256,-0.027 -0.482,-0.027 -0.369,0 -0.624,0.141 -0.766,0.426 -0.085,0.197 -0.142,0.51 -0.142,0.934 v 1.135 h 1.36 v 0.906 h -1.36 v 6.918 h -1.219 v -6.918 h -1.134 v -0.906 h 1.134 v -0.85 c 0,-0.852 0.113,-1.447 0.312,-1.814 0.283,-0.539 0.851,-0.822 1.672,-0.822 0.228,0 0.426,0.027 0.625,0.057 z"
   id="path17" />

		<path
   fill="#1d1d1e"
   d="m 63.638,27.553 v -1.189 c 0,-0.879 -0.057,-1.504 -0.171,-1.844 -0.198,-0.623 -0.595,-0.963 -1.247,-0.963 -0.68,0 -1.105,0.34 -1.332,1.02 -0.113,0.342 -0.17,0.965 -0.17,1.814 v 1.135 c 0,0.736 0.057,1.275 0.17,1.615 0.227,0.539 0.652,0.822 1.275,0.822 0.623,0 1.049,-0.283 1.247,-0.793 0.142,-0.369 0.228,-0.908 0.228,-1.617 z m 1.276,-0.822 c 0,1.418 -0.17,2.439 -0.482,3.006 -0.396,0.736 -1.162,1.105 -2.268,1.105 -1.134,0 -1.899,-0.369 -2.268,-1.105 -0.283,-0.539 -0.426,-1.502 -0.426,-2.92 0,-1.332 0.143,-2.297 0.454,-2.92 0.425,-0.793 1.19,-1.219 2.324,-1.219 1.134,0 1.871,0.396 2.268,1.133 0.255,0.539 0.398,1.504 0.398,2.92 z"
   id="path18" />

		<path
   fill="#1d1d1e"
   d="m 70.185,23.87 c -0.141,0 -0.227,-0.029 -0.283,-0.029 -0.596,0 -1.02,0.199 -1.332,0.539 -0.283,0.367 -0.426,0.85 -0.426,1.445 v 4.848 h -1.246 v -6.379 c 0,-0.539 -0.029,-1.02 -0.057,-1.445 h 1.219 v 1.021 c 0.425,-0.766 1.076,-1.164 1.984,-1.164 0.084,0 0.141,0.398 0.141,1.164 z"
   id="path19" />

		<path
   fill="#1d1d1e"
   d="m 80.759,25.002 c 0,-1.02 -0.029,-1.758 -0.086,-2.182 -0.113,-0.965 -0.396,-1.617 -0.85,-1.928 -0.34,-0.256 -0.851,-0.398 -1.531,-0.398 h -1.389 v 9.129 h 1.559 c 0.539,0 0.992,-0.143 1.332,-0.396 0.454,-0.313 0.738,-0.965 0.852,-1.957 0.084,-0.453 0.113,-1.219 0.113,-2.268 z m 1.361,-0.113 c 0,1.191 -0.028,2.041 -0.114,2.637 -0.141,1.076 -0.48,1.842 -0.963,2.295 -0.596,0.568 -1.502,0.852 -2.693,0.852 H 75.6 V 19.446 h 2.75 c 1.105,0 1.956,0.229 2.523,0.652 0.51,0.396 0.879,0.965 1.049,1.701 0.141,0.623 0.198,1.645 0.198,3.09 z"
   id="path20" />

		<path
   fill="#1d1d1e"
   d="m 87.562,23.87 c -0.113,0 -0.198,-0.029 -0.256,-0.029 -0.595,0 -1.049,0.199 -1.332,0.539 -0.283,0.367 -0.453,0.85 -0.453,1.445 v 4.848 h -1.219 v -6.379 c 0,-0.539 -0.028,-1.02 -0.057,-1.445 h 1.219 v 1.021 c 0.426,-0.766 1.077,-1.164 1.984,-1.164 0.086,0 0.114,0.398 0.114,1.164 z"
   id="path21" />

		<path
   fill="#1d1d1e"
   d="M 94.365,30.672 H 93.117 V 29.68 c -0.48,0.766 -1.133,1.133 -1.982,1.133 -1.39,0 -2.098,-0.822 -2.098,-2.408 v -5.557 h 1.219 v 5.018 c 0,0.623 0.057,1.076 0.17,1.361 0.17,0.453 0.538,0.65 1.077,0.65 1.021,0 1.559,-0.736 1.559,-2.268 v -4.762 h 1.221 v 6.094 c -0.002,0.626 0.026,1.192 0.082,1.731 z"
   id="path22" />

		<path
   fill="#1d1d1e"
   d="m 100.516,26.504 c 0,-0.879 -0.084,-1.529 -0.227,-1.955 -0.227,-0.623 -0.65,-0.965 -1.275,-0.965 -0.652,0 -1.076,0.369 -1.275,1.105 -0.113,0.426 -0.197,1.162 -0.197,2.154 0,0.908 0.084,1.531 0.197,1.928 0.199,0.652 0.596,0.965 1.191,0.965 0.709,0 1.162,-0.396 1.416,-1.162 0.113,-0.396 0.17,-1.105 0.17,-2.07 z m 1.248,-3.656 c 0,0.113 0,0.313 0,0.623 -0.027,0.283 -0.027,0.512 -0.027,0.682 v 6.859 c 0,0.936 -0.229,1.645 -0.682,2.068 -0.424,0.455 -1.133,0.652 -2.125,0.652 -1.617,0 -2.438,-0.736 -2.438,-2.268 h 1.303 c 0,0.965 0.396,1.445 1.191,1.445 0.652,0 1.049,-0.227 1.275,-0.68 0.141,-0.313 0.197,-0.822 0.197,-1.502 V 29.68 c -0.424,0.596 -1.02,0.906 -1.813,0.906 -0.965,0 -1.645,-0.396 -1.984,-1.219 -0.256,-0.539 -0.369,-1.389 -0.369,-2.523 0,-1.275 0.143,-2.211 0.396,-2.834 0.369,-0.879 1.021,-1.332 1.984,-1.332 0.879,0 1.502,0.369 1.871,1.105 v -0.936 h 1.221 z"
   id="path23" />

		<path
   fill="#1d1d1e"
   d="m 108.369,28.545 c 0,1.502 -0.822,2.268 -2.467,2.268 -1.588,0 -2.381,-0.85 -2.354,-2.521 h 1.219 c 0,0.141 0,0.311 0.029,0.424 0.057,0.822 0.453,1.248 1.135,1.248 0.793,0 1.189,-0.426 1.189,-1.219 0,-0.453 -0.113,-0.795 -0.369,-1.021 -0.17,-0.17 -0.51,-0.396 -1.049,-0.68 -0.736,-0.396 -1.189,-0.709 -1.389,-0.879 -0.396,-0.369 -0.596,-0.85 -0.596,-1.445 0,-0.68 0.229,-1.191 0.682,-1.531 0.396,-0.34 0.963,-0.51 1.645,-0.51 0.82,0 1.389,0.199 1.729,0.566 0.34,0.369 0.51,0.965 0.539,1.758 h -1.219 c 0,-0.992 -0.369,-1.475 -1.105,-1.475 -0.313,0 -0.568,0.113 -0.766,0.313 -0.17,0.199 -0.283,0.453 -0.283,0.766 0,0.369 0.17,0.652 0.453,0.906 0.17,0.143 0.539,0.369 1.105,0.682 0.623,0.34 1.076,0.623 1.303,0.879 0.37,0.395 0.569,0.876 0.569,1.471 z"
   id="path24" />

		<path
   fill="#1d1d1e"
   d="M 58.762,44.137 V 43.201 H 58.45 c -1.616,0 -2.438,0.566 -2.438,1.699 0,0.992 0.368,1.503 1.134,1.503 0.596,0 1.021,-0.256 1.305,-0.765 0.226,-0.368 0.311,-0.878 0.311,-1.501 z m 1.304,3.034 h -1.19 l -0.028,-1.022 c -0.51,0.767 -1.219,1.163 -2.098,1.163 -0.652,0 -1.162,-0.227 -1.531,-0.652 -0.312,-0.425 -0.481,-0.963 -0.481,-1.672 0,-1.105 0.425,-1.842 1.275,-2.211 0.567,-0.283 1.474,-0.396 2.75,-0.426 v -0.34 c 0,-0.623 -0.028,-1.076 -0.142,-1.332 -0.17,-0.426 -0.511,-0.623 -1.049,-0.623 -0.369,0 -0.681,0.113 -0.936,0.311 -0.256,0.199 -0.369,0.512 -0.369,0.879 v 0.086 H 55.02 v -0.086 c 0,-0.709 0.284,-1.246 0.794,-1.615 0.426,-0.313 1.049,-0.453 1.785,-0.453 0.908,0 1.531,0.227 1.9,0.652 0.312,0.396 0.481,1.049 0.481,1.955 v 2.891 c 0.001,0.934 0.029,1.786 0.086,2.495 z"
   id="path25" />

		<path
   fill="#1d1d1e"
   d="M 67.521,47.171 H 66.302 V 42.18 c 0,-0.68 -0.057,-1.133 -0.142,-1.389 -0.198,-0.453 -0.539,-0.68 -1.077,-0.68 -0.539,0 -0.936,0.254 -1.219,0.766 -0.256,0.453 -0.369,0.992 -0.369,1.586 v 4.708 h -1.219 v -6.124 c 0,-0.682 -0.028,-1.248 -0.057,-1.701 h 1.19 v 1.076 c 0.454,-0.822 1.105,-1.246 2.041,-1.246 1.39,0 2.069,0.822 2.069,2.438 v 5.557 z"
   id="path26" />

		<path
   fill="#1d1d1e"
   d="m 73.729,43.342 c 0,-1.076 -0.085,-1.842 -0.228,-2.295 -0.227,-0.652 -0.651,-0.965 -1.275,-0.965 -0.595,0 -1.02,0.34 -1.219,1.021 -0.17,0.453 -0.227,1.133 -0.227,2.068 0,1.021 0.085,1.785 0.256,2.268 0.197,0.623 0.595,0.964 1.162,0.964 0.651,0 1.105,-0.342 1.303,-0.992 0.143,-0.424 0.228,-1.104 0.228,-2.069 z m 1.247,3.829 h -1.19 v -0.909 c -0.454,0.681 -1.077,1.05 -1.843,1.05 -0.992,0 -1.701,-0.453 -2.068,-1.362 -0.228,-0.594 -0.341,-1.529 -0.341,-2.805 0,-1.191 0.113,-2.098 0.397,-2.693 0.367,-0.852 1.049,-1.275 1.983,-1.275 0.794,0 1.39,0.311 1.758,0.906 v -4.139 h 1.247 v 9.752 c 0,0.283 0.029,0.766 0.057,1.475 z"
   id="path27" />

		<polygon
   fill="#1d1d1e"
   points="90.935,35.944 90.935,47.171 89.631,47.171 89.631,36.936 86.74,47.171 85.266,47.171 82.375,36.936 82.375,47.171 81.184,47.171 81.184,35.944 83.367,35.944 86.06,45.836 88.752,35.944 "
   id="polygon27" />

		<path
   fill="#1d1d1e"
   d="m 97.229,42.606 c 0,-0.766 -0.029,-1.305 -0.143,-1.615 -0.197,-0.625 -0.594,-0.936 -1.189,-0.936 -0.852,0 -1.332,0.51 -1.445,1.529 -0.057,0.342 -0.057,0.682 -0.057,1.021 h 2.834 z m 1.248,0.822 h -4.082 v 0.539 c 0,0.793 0.057,1.359 0.197,1.729 0.227,0.482 0.623,0.736 1.219,0.736 0.908,0 1.361,-0.566 1.418,-1.701 h 1.219 c -0.086,1.731 -0.963,2.61 -2.637,2.61 -1.076,0 -1.842,-0.369 -2.238,-1.106 -0.283,-0.568 -0.455,-1.447 -0.455,-2.666 0,-1.389 0.143,-2.381 0.398,-2.977 0.396,-0.936 1.189,-1.416 2.381,-1.416 1.133,0 1.871,0.424 2.238,1.246 0.227,0.512 0.342,1.389 0.342,2.637 z"
   id="path28" />

		<path
   fill="#1d1d1e"
   d="m 104.344,43.342 c 0,-1.076 -0.086,-1.842 -0.227,-2.295 -0.227,-0.652 -0.652,-0.965 -1.275,-0.965 -0.596,0 -1.021,0.34 -1.248,1.021 -0.143,0.453 -0.199,1.133 -0.199,2.068 0,1.021 0.086,1.785 0.256,2.268 0.199,0.623 0.596,0.964 1.162,0.964 0.652,0 1.105,-0.342 1.305,-0.992 0.14,-0.424 0.226,-1.104 0.226,-2.069 z m 1.246,3.829 h -1.19 v -0.909 c -0.453,0.681 -1.078,1.05 -1.844,1.05 -1.02,0 -1.699,-0.453 -2.068,-1.362 -0.227,-0.594 -0.369,-1.529 -0.369,-2.805 0,-1.191 0.143,-2.098 0.426,-2.693 0.369,-0.852 1.049,-1.275 1.984,-1.275 0.766,0 1.361,0.311 1.758,0.906 v -4.139 h 1.246 v 9.752 c 0,0.283 0.03,0.766 0.057,1.475 z"
   id="path29" />

		<path
   fill="#1d1d1e"
   d="m 109.078,47.171 h -1.221 v -7.825 h 1.221 z m 0.057,-9.725 h -1.361 v -1.359 h 1.361 z"
   id="path30" />

		<path
   fill="#1d1d1e"
   d="m 116.191,44.731 c 0,1.731 -0.793,2.61 -2.438,2.61 -1.105,0 -1.871,-0.369 -2.238,-1.106 -0.283,-0.539 -0.426,-1.503 -0.426,-2.863 0,-1.332 0.113,-2.297 0.369,-2.863 0.396,-0.908 1.189,-1.332 2.352,-1.332 0.879,0 1.502,0.197 1.871,0.623 0.34,0.396 0.51,1.021 0.51,1.898 h -1.189 c 0,-1.076 -0.426,-1.643 -1.219,-1.643 -0.652,0 -1.049,0.34 -1.248,1.049 -0.113,0.396 -0.17,1.133 -0.17,2.154 0,1.189 0.086,1.984 0.256,2.438 0.197,0.509 0.566,0.736 1.105,0.736 0.48,0 0.85,-0.17 1.02,-0.509 0.17,-0.256 0.227,-0.652 0.256,-1.191 h 1.189 z"
   id="path31" />

		<path
   fill="#1d1d1e"
   d="m 121.492,44.137 v -0.936 h -0.311 c -1.645,0 -2.467,0.566 -2.467,1.699 0,0.992 0.396,1.503 1.162,1.503 0.566,0 0.992,-0.256 1.275,-0.765 0.228,-0.368 0.341,-0.878 0.341,-1.501 z m 1.276,3.034 h -1.189 l -0.029,-1.022 c -0.51,0.767 -1.219,1.163 -2.098,1.163 -0.65,0 -1.162,-0.227 -1.529,-0.652 -0.313,-0.425 -0.482,-0.963 -0.482,-1.672 0,-1.105 0.426,-1.842 1.275,-2.211 0.566,-0.283 1.475,-0.396 2.777,-0.426 v -0.34 c 0,-0.623 -0.057,-1.076 -0.17,-1.332 -0.17,-0.426 -0.51,-0.623 -1.049,-0.623 -0.367,0 -0.68,0.113 -0.936,0.311 -0.254,0.199 -0.367,0.512 -0.367,0.879 v 0.086 h -1.219 v -0.086 c 0,-0.709 0.254,-1.246 0.764,-1.615 0.455,-0.313 1.049,-0.453 1.814,-0.453 0.879,0 1.504,0.227 1.871,0.652 0.34,0.396 0.482,1.049 0.482,1.955 v 2.891 c 10e-4,0.934 0.028,1.786 0.085,2.495 z"
   id="path32" />

		<polygon
   fill="#1d1d1e"
   points="124.98,35.944 125.604,35.944 126.199,35.944 126.199,47.171 124.98,47.171 "
   id="polygon32" />

		<path
   fill="#1d1d1e"
   d="m 137.621,41.5 c 0,-1.021 -0.027,-1.758 -0.084,-2.184 -0.113,-0.963 -0.396,-1.615 -0.822,-1.928 -0.369,-0.283 -0.879,-0.396 -1.559,-0.396 h -1.361 v 9.128 h 1.531 c 0.566,0 0.992,-0.142 1.332,-0.398 0.453,-0.311 0.736,-0.963 0.879,-1.955 0.057,-0.452 0.084,-1.218 0.084,-2.267 z m 1.391,-0.113 c 0,1.162 -0.057,2.041 -0.143,2.607 -0.141,1.078 -0.453,1.871 -0.963,2.324 -0.568,0.567 -1.475,0.853 -2.693,0.853 h -2.75 V 35.944 h 2.75 c 1.105,0 1.955,0.227 2.523,0.652 0.537,0.396 0.877,0.936 1.049,1.701 0.141,0.623 0.227,1.645 0.227,3.09 z"
   id="path33" />

		<path
   fill="#1d1d1e"
   d="m 144.992,42.606 c 0,-0.766 -0.057,-1.305 -0.17,-1.615 -0.17,-0.625 -0.596,-0.936 -1.191,-0.936 -0.85,0 -1.332,0.51 -1.445,1.529 -0.027,0.342 -0.057,0.682 -0.057,1.021 h 2.863 z m 1.219,0.822 h -4.082 v 0.539 c 0,0.793 0.057,1.359 0.199,1.729 0.227,0.482 0.623,0.736 1.219,0.736 0.906,0 1.389,-0.566 1.416,-1.701 h 1.221 c -0.086,1.731 -0.965,2.61 -2.637,2.61 -1.078,0 -1.814,-0.369 -2.24,-1.106 -0.283,-0.568 -0.453,-1.447 -0.453,-2.666 0,-1.389 0.143,-2.381 0.396,-2.977 0.396,-0.936 1.219,-1.416 2.41,-1.416 1.105,0 1.842,0.424 2.211,1.246 0.227,0.512 0.34,1.389 0.34,2.637 z"
   id="path34" />

		<polygon
   fill="#1d1d1e"
   points="150.094,45.922 151.768,39.346 152.957,39.346 150.746,47.171 149.357,47.171 147.176,39.346 148.508,39.346 "
   id="polygon34" />

		<path
   fill="#1d1d1e"
   d="m 155.68,47.171 h -1.221 v -7.825 h 1.221 z m 0.056,-9.725 h -1.334 v -1.359 h 1.334 z"
   id="path35" />

		<path
   fill="#1d1d1e"
   d="m 162.822,44.731 c 0,1.731 -0.822,2.61 -2.438,2.61 -1.135,0 -1.871,-0.369 -2.268,-1.106 -0.283,-0.539 -0.426,-1.503 -0.426,-2.863 0,-1.332 0.113,-2.297 0.369,-2.863 0.396,-0.908 1.189,-1.332 2.352,-1.332 0.879,0 1.502,0.197 1.9,0.623 0.34,0.396 0.51,1.021 0.51,1.898 h -1.219 c 0,-1.076 -0.396,-1.643 -1.219,-1.643 -0.652,0 -1.049,0.34 -1.248,1.049 -0.113,0.396 -0.17,1.133 -0.17,2.154 0,1.189 0.086,1.984 0.256,2.438 0.197,0.509 0.566,0.736 1.105,0.736 0.51,0 0.85,-0.17 1.049,-0.509 0.141,-0.256 0.197,-0.652 0.227,-1.191 h 1.22 z"
   id="path36" />

		<path
   fill="#1d1d1e"
   d="m 168.35,42.606 c 0,-0.766 -0.057,-1.305 -0.17,-1.615 -0.17,-0.625 -0.596,-0.936 -1.191,-0.936 -0.85,0 -1.332,0.51 -1.445,1.529 -0.027,0.342 -0.057,0.682 -0.057,1.021 h 2.863 z m 1.218,0.822 h -4.082 v 0.539 c 0,0.793 0.057,1.359 0.227,1.729 0.199,0.482 0.596,0.736 1.191,0.736 0.906,0 1.389,-0.566 1.416,-1.701 h 1.221 c -0.086,1.731 -0.965,2.61 -2.637,2.61 -1.078,0 -1.814,-0.369 -2.24,-1.106 -0.283,-0.568 -0.453,-1.447 -0.453,-2.666 0,-1.389 0.143,-2.381 0.396,-2.977 0.396,-0.936 1.219,-1.416 2.41,-1.416 1.105,0 1.842,0.424 2.211,1.246 0.227,0.512 0.34,1.389 0.34,2.637 z"
   id="path37" />

		<path
   fill="#1d1d1e"
   d="m 175.861,45.043 c 0,1.502 -0.822,2.268 -2.438,2.268 -1.616,0 -2.41,-0.85 -2.381,-2.524 h 1.246 c 0,0.143 0,0.285 0,0.426 0.086,0.822 0.453,1.218 1.162,1.218 0.795,0 1.191,-0.396 1.191,-1.189 0,-0.455 -0.143,-0.795 -0.396,-1.049 -0.143,-0.143 -0.482,-0.369 -1.021,-0.682 -0.736,-0.396 -1.219,-0.68 -1.416,-0.85 -0.398,-0.369 -0.568,-0.852 -0.568,-1.445 0,-0.682 0.199,-1.191 0.652,-1.561 0.426,-0.311 0.965,-0.48 1.672,-0.48 0.795,0 1.361,0.197 1.701,0.566 0.369,0.369 0.539,0.963 0.566,1.758 h -1.246 c 0,-0.992 -0.369,-1.475 -1.078,-1.475 -0.34,0 -0.594,0.113 -0.766,0.313 -0.197,0.17 -0.283,0.453 -0.283,0.766 0,0.34 0.143,0.65 0.455,0.906 0.141,0.143 0.51,0.369 1.105,0.68 0.623,0.342 1.049,0.625 1.303,0.852 0.37,0.397 0.54,0.907 0.54,1.502 z"
   id="path38" />

	<rect
   style="fill:none;stroke-width:0.239258"
   id="rect1"
   width="56.640659"
   height="32.504574"
   x="69.952682"
   y="114.83225"
   transform="matrix(3.7795276,0,0,3.7795276,-283.51153,-451.80087)" />
</g>
  </g>
</svg>
