<svg xmlns="http://www.w3.org/2000/svg" height="54.912" width="255.77"><g transform="matrix(1.25 0 0 -1.25 -500.45 462.26)"><g><path d="m0.90039 1.0996v52.912h44.202v-52.912l-44.202-0.0004zm176.29 8.4004c-0.78-0.0178-1.55 0.1003-2.3 0.3984-2.02 0.8046-2.81 2.7606-2.39 4.6626 0.18 0.863 0.65 1.593 1.19 2.275 0.15 0.185 0.3 0.365 0.46 0.551-0.06 0.038-0.1 0.065-0.14 0.095-0.64 0.452-1.27 0.916-1.79 1.518-0.54 0.636-0.95 1.342-1.14 2.16-0.17 0.733-0.14 1.473-0.01 2.207 0.36 2.014 1.5 3.333 3.49 3.873 1.08 0.293 2.18 0.339 3.28 0.207 1-0.119 1.93-0.454 2.76-1.037 0.27-0.187 0.53-0.387 0.81-0.596 0.02 0.035 0.04 0.065 0.06 0.092 0.38 0.453 0.76 0.905 1.14 1.362 0.06 0.073 0.12 0.095 0.21 0.095 1.27-0.002 2.55 0 3.82-0.002 0.04 0 0.09 0.022 0.12-0.029-1.05-1.239-2.1-2.481-3.15-3.723 0.03-0.043 0.05-0.076 0.08-0.107 0.55-0.628 0.95-1.34 1.22-2.129 0.25-0.737 0.4-1.496 0.5-2.268 0.04-0.321 0.06-0.646 0.09-0.98h-3.06c-0.03 0.549-0.1 1.086-0.23 1.613-0.13 0.53-0.33 1.028-0.67 1.479-1-1.187-1.99-2.357-2.99-3.535 0.08-0.058 0.15-0.105 0.21-0.155 0.57-0.43 1.19-0.808 1.7-1.306 0.38-0.365 0.73-0.757 0.93-1.25 0.33-0.784 0.3-1.587 0.12-2.393-0.18-0.767-0.56-1.423-1.15-1.949-0.68-0.608-1.49-0.9484-2.39-1.0665-0.26-0.0345-0.52-0.0566-0.78-0.0625zm-52.66 0.0273c-1.37 0.0163-2.53 0.3641-3.45 1.0237-0.93 0.643-1.61 1.392-2.02 2.195-0.28 0.456-0.48 1.048-0.61 1.768-0.11 0.685-0.17 1.98-0.17 3.957 0 1.942 0.06 3.225 0.17 3.922 0.06 0.383 0.15 0.715 0.26 1.005 0.09 0.234 0.2 0.479 0.33 0.75 0.43 0.842 1.11 1.588 2.03 2.211 0.93 0.666 2.09 1.02 3.45 1.053h0.02 0.01c1.37-0.032 2.55-0.386 3.47-1.047 0.92-0.633 1.59-1.382 1.96-2.16 0.32-0.464 0.54-1.075 0.65-1.822 0.1-0.696 0.15-1.977 0.15-3.912 0-1.967-0.05-3.254-0.15-3.944-0.11-0.724-0.33-1.327-0.61-1.728-0.41-0.841-1.08-1.595-1.99-2.242-0.94-0.666-2.11-1.0134-3.5-1.0297zm15.24 0c-1.37 0.0163-2.53 0.3641-3.45 1.0237-0.93 0.643-1.62 1.392-2.02 2.195-0.28 0.456-0.48 1.048-0.61 1.768-0.12 0.685-0.17 1.98-0.17 3.957 0 1.942 0.05 3.225 0.17 3.922 0.06 0.383 0.14 0.715 0.25 1.005 0.1 0.234 0.21 0.479 0.34 0.75 0.43 0.842 1.11 1.588 2.03 2.211 0.93 0.666 2.09 1.02 3.45 1.053h0.01 0.02c1.37-0.032 2.54-0.386 3.47-1.047 0.92-0.633 1.59-1.382 1.96-2.16 0.32-0.464 0.53-1.075 0.65-1.822 0.1-0.696 0.15-1.977 0.15-3.912 0-1.967-0.05-3.254-0.15-3.944-0.12-0.724-0.33-1.327-0.61-1.728-0.41-0.841-1.08-1.595-1.99-2.242-0.94-0.666-2.11-1.0134-3.5-1.0297zm108.63 0c-1.37 0.0163-2.53 0.3643-3.45 1.0277-0.93 0.645-1.61 1.397-2.02 2.203-0.27 0.455-0.48 1.048-0.61 1.763-0.11 0.686-0.17 1.977-0.17 3.95 0 1.942 0.06 3.225 0.17 3.922 0.07 0.383 0.15 0.715 0.26 1.005 0.1 0.234 0.2 0.479 0.33 0.75 0.43 0.842 1.12 1.588 2.03 2.211 0.93 0.666 2.09 1.02 3.45 1.053h0.02 0.01c1.13-0.021 2.14-0.29 3.04-0.795v0.69h3.21v-10.194h-0.02-6.24v3.418h2.76v0.33c-0.02 0.908-0.28 1.613-0.81 2.164-0.52 0.561-1.16 0.832-1.96 0.832-0.47 0-0.87-0.099-1.24-0.318-0.34-0.174-0.62-0.399-0.85-0.707-0.25-0.282-0.42-0.668-0.51-1.156-0.11-0.54-0.16-1.618-0.16-3.205 0-1.59 0.05-2.678 0.16-3.241 0.09-0.468 0.25-0.834 0.53-1.154 0.21-0.279 0.5-0.517 0.84-0.705 0.34-0.179 0.76-0.275 1.22-0.289 0.66 0.014 1.2 0.2 1.64 0.559 0.45 0.408 0.75 0.888 0.92 1.468l0.11 0.381h3.61l-0.12-0.625c-0.27-1.49-0.95-2.759-2-3.771-1.07-1.022-2.46-1.5504-4.15-1.5667zm-164.15 0.0977c-2.868 0-5.66 1.558-5.66 4.846 0 3.312 2.52 4.3 4.769 5.14 1.755 0.643 3.338 1.213 3.338 2.696 0 1.532-1.36 2.199-2.744 2.199-1.805 0-2.892-0.817-4.301-2.176l-2.349 2.301c1.878 1.879 3.955 2.89 6.625 2.89 3.015 0 6.55-1.605 6.55-5.363 0-3.634-2.941-4.77-5.388-5.611-1.335-0.469-2.965-0.841-2.965-2.176 0-1.137 1.062-1.73 2.248-1.73 1.335 0 2.62 0.743 3.584 1.558l2.027-2.521c-1.755-1.335-3.509-2.053-5.734-2.053zm21.026 0.0391v17.611h3.48v-7.074h5.2v-3.281h-5.2v-3.838h7.82v-3.4179h-11.3zm44.02 0v17.611h5.97c1.3 0 2.43-0.303 3.33-0.892 0.9-0.55 1.62-1.258 2.13-2.112 0.19-0.312 0.35-0.614 0.49-0.917 0.13-0.316 0.23-0.676 0.3-1.067 0.13-0.746 0.19-1.993 0.19-3.816 0-1.71-0.04-2.885-0.13-3.61-0.11-0.749-0.38-1.476-0.8-2.144-1.18-2.009-2.98-3.0367-5.34-3.0529h-6.14zm46.75 0v17.611h5.97c1.3 0 2.43-0.303 3.32-0.892 0.91-0.55 1.63-1.258 2.14-2.112 0.19-0.312 0.35-0.614 0.49-0.917 0.13-0.316 0.23-0.676 0.29-1.067 0.13-0.746 0.2-1.993 0.2-3.816 0-1.71-0.04-2.885-0.13-3.61-0.11-0.749-0.38-1.476-0.8-2.144-1.18-2.009-2.98-3.0367-5.34-3.0529h-6.14zm15.7 0v17.611h3.49v-7.074h2.24l3.32 7.074h4.08l-3.85-7.617c1.9-0.942 2.88-2.567 2.91-4.859-0.05-1.683-0.65-3.004-1.78-3.916-0.94-0.809-2.15-1.2189-3.61-1.2189h-6.8zm14.95 0v11.484c0.01 1.884 0.63 3.405 1.83 4.516 1.17 1.144 2.65 1.731 4.39 1.748h0.01c1.77-0.017 3.26-0.605 4.42-1.748 1.16-1.118 1.77-2.638 1.8-4.525v-11.475l-3.48 0.0001v11.203c-0.01 0.98-0.27 1.723-0.77 2.215-0.52 0.522-1.17 0.775-1.98 0.775-0.8 0-1.44-0.252-1.95-0.785-0.52-0.492-0.78-1.214-0.79-2.197v-11.211l-3.48 0.0001zm-170.05 0.039v11.485c0.015 1.882 0.635 3.403 1.833 4.513 1.172 1.144 2.648 1.732 4.388 1.748h0.002 0.004 0.006c1.768-0.016 3.257-0.605 4.42-1.748 1.162-1.117 1.769-2.637 1.801-4.525v-11.473l-3.485 0.0001v11.203c-0.012 0.98-0.269 1.722-0.769 2.213-0.52 0.523-1.165 0.777-1.973 0.777-0.805 0-1.441-0.251-1.959-0.785-0.515-0.492-0.771-1.215-0.783-2.199v-11.209l-3.485 0.0001zm120.25 2.5289c0.73-0.082 1.49 0.37 1.65 1.133 0.11 0.515-0.04 0.956-0.41 1.334-0.39 0.405-0.87 0.68-1.33 0.998-0.37-0.478-0.81-0.894-1.05-1.449-0.27-0.601-0.06-1.386 0.44-1.748 0.22-0.154 0.46-0.24 0.7-0.268zm38.34 0.713h3.29c0.64 0 1.13 0.132 1.47 0.409 0.38 0.286 0.58 0.763 0.59 1.453 0 0.59-0.18 1.071-0.55 1.478-0.35 0.415-0.9 0.622-1.65 0.635h-3.15v-3.975zm-59.97 0.135c1.01 0 1.77 0.384 2.35 1.215 0.27 0.309 0.44 0.727 0.51 1.226 0.06 0.601 0.09 1.625 0.09 3.04 0 1.451-0.03 2.449-0.09 2.957-0.06 0.452-0.2 0.822-0.44 1.138-0.51 0.808-1.34 1.201-2.53 1.201h-2.37v-10.775l2.48-0.002zm46.75 0c1.01 0 1.77 0.384 2.36 1.215 0.26 0.309 0.43 0.727 0.5 1.226 0.06 0.601 0.09 1.625 0.09 3.04 0 1.451-0.03 2.449-0.09 2.957-0.06 0.452-0.2 0.822-0.44 1.138-0.52 0.808-1.34 1.201-2.53 1.201h-2.37v-10.775l2.48-0.002zm-77.49 0.002c0.49 0.016 0.92 0.114 1.25 0.285 0.33 0.188 0.6 0.422 0.83 0.742 0.26 0.287 0.43 0.667 0.53 1.123 0.1 0.555 0.15 1.646 0.15 3.239 0 1.592-0.05 2.671-0.15 3.205-0.1 0.48-0.28 0.87-0.56 1.199-0.2 0.273-0.46 0.496-0.81 0.68-0.68 0.4-1.74 0.43-2.48-0.016-0.34-0.174-0.62-0.399-0.85-0.707-0.25-0.282-0.42-0.668-0.51-1.156-0.11-0.54-0.17-1.618-0.17-3.205 0-1.59 0.06-2.678 0.17-3.241 0.09-0.468 0.25-0.835 0.53-1.154 0.21-0.279 0.5-0.517 0.84-0.705 0.33-0.177 0.75-0.275 1.23-0.289zm15.24 0c0.49 0.016 0.91 0.114 1.25 0.285 0.33 0.188 0.6 0.422 0.83 0.742 0.25 0.287 0.43 0.667 0.53 1.123 0.1 0.555 0.15 1.646 0.15 3.239 0 1.592-0.05 2.671-0.15 3.205-0.1 0.48-0.28 0.87-0.57 1.199-0.19 0.273-0.45 0.496-0.8 0.68-0.68 0.4-1.74 0.43-2.48-0.016-0.34-0.174-0.62-0.399-0.86-0.707-0.25-0.282-0.42-0.668-0.5-1.156-0.11-0.54-0.17-1.618-0.17-3.205 0-1.59 0.06-2.678 0.17-3.241 0.08-0.468 0.25-0.835 0.53-1.154 0.21-0.279 0.49-0.517 0.84-0.705 0.33-0.177 0.75-0.275 1.23-0.289zm36.12 6.291c1.18 1.383 2.35 2.764 3.54 4.152-0.29 0.27-0.6 0.491-0.93 0.661-0.85 0.424-1.73 0.516-2.64 0.25-1.07-0.315-1.76-1.254-1.76-2.364 0-0.649 0.19-1.23 0.65-1.709 0.35-0.358 0.72-0.686 1.14-0.99zm-105.02 4.523v3.418h3.35v-3.418h-3.35zm21.143 0v3.418h3.347v-3.418h-3.347zm25.814 12.325c-1.47 0-2.83 0.793-2.83 2.494 0 1.547 1.27 2.134 2.47 2.568 0.93 0.333 1.84 0.653 1.84 1.51 0 0.933-0.79 1.316-1.58 1.316-0.92 0-1.51-0.345-2.29-1.099l-1.08 1.037c0.98 0.959 2 1.432 3.35 1.432 1.49 0 3.28-0.807 3.28-2.776 0-1.803-1.49-2.39-2.8-2.838-0.72-0.243-1.6-0.525-1.6-1.228 0-0.678 0.59-1.049 1.33-1.049 0.69 0 1.4 0.358 1.87 0.767l0.93-1.136c-0.87-0.653-1.78-0.998-2.89-0.998zm53.32 0c-2.64 0-4.64 2.07-4.64 4.629 0 2.557 2 4.629 4.64 4.629 2.65 0 4.65-2.072 4.65-4.629 0-2.559-2-4.629-4.65-4.629zm-112.09 0.152l-3.568 8.953h1.74l0.639-1.765h2.459l-0.475-1.331h-1.498l1.254-3.439h0.012l2.328 6.535h1.817l-3.389-8.953h-1.319zm7.942 0v8.953h2.402c2.456 0 4.989-1.203 4.989-4.515 0-3.235-2.571-4.438-4.86-4.438h-2.531zm11.084 0v8.953h1.586v-6.984l2.762 6.984h1.126l2.827-6.957v6.957h1.586v-8.953h-2.368l-2.595 6.561-2.532-6.561h-2.392zm13.976 0v8.951h1.586v-8.951h-1.586zm5.678 0v8.953h1.586v-6.049l4.422 6.049h1.42v-8.953h-1.58v6.063l-4.455-6.063h-1.393zm11.518 0v8.951h1.59v-8.951h-1.59zm14.46 0v1.356h2.18v7.597h1.58v-7.597h2.18v-1.356h-5.94zm9.12 0v8.953h1.59v-3.658h0.56l2.55 3.658h1.98l-2.78-3.812c1.05-0.294 2.05-1.061 2.05-2.506 0-1.906-1.77-2.635-3.19-2.635h-2.76zm12.82 0l-3.56 8.953h1.74l0.63-1.765h2.46l-0.47-1.331h-1.5l1.25-3.439h0.02l2.32 6.535h1.82l-3.39-8.953h-1.32zm6.45 0v1.356h2.17v7.597h1.59v-7.597h2.17v-1.356h-5.93zm9.12 0v8.951h1.58v-8.951h-1.58zm18.27 0v8.953h1.58v-6.049l4.43 6.049h1.42v-8.953h-1.59v6.063l-4.45-6.063h-1.39zm-8.35 1.24c1.72 0 2.98 1.42 2.98 3.237 0 1.815-1.26 3.234-2.98 3.234s-2.97-1.419-2.97-3.234c0-1.817 1.25-3.237 2.97-3.237zm-102.56 0.116h0.73c2.136 0 3.401 1.112 3.401 3.197 0 2.263-1.56 3.043-3.836 3.043h-0.295v-6.24zm65.842 0h1.13c0.93 0 1.55 0.525 1.55 1.318 0 0.895-0.77 1.265-1.8 1.265h-0.88v-2.583z" transform="matrix(.8 0 0 -.8 400.36 369.81)" fill="#007cba"/><path d="m5.3105 11.365v14.729h3.0723v-6.074h4.1462v-2.641h-4.1462v-3.373h12.461c0.613 0.024 1.154 0.118 1.594 0.31 0.501 0.22 0.91 0.529 1.226 0.928 0.317 0.399 0.547 0.891 0.691 1.475 0.145 0.585 0.217 1.234 0.217 1.949 0 0.729-0.081 1.386-0.246 1.971s-0.423 1.09-0.773 1.515c-0.351 0.427-0.81 0.753-1.373 0.979-0.564 0.227-1.244 0.342-2.041 0.342h-1.981v-6.073h-3.074v8.692h4.992c1.196 0 2.27-0.159 3.219-0.475s1.752-0.791 2.412-1.424c0.66-0.632 1.167-1.409 1.518-2.33 0.35-0.921 0.525-1.993 0.525-3.217 0-2.406-0.629-4.223-1.887-5.447-1.153-1.122-2.73-1.742-4.72-1.836h-6.059-9.7735zm27.428 0l-5.529 14.729h3.301l1.176-3.403h3.552l-0.73-2.537h-2.018l1.795-5.281 3.735 11.221h3.175l-5.529-14.729h-2.928z" transform="matrix(.8 0 0 -.8 400.36 369.81)" fill="#fff"/></g></g></svg>