<?xml version="1.0"?>
<svg width="133" height="18" xmlns="http://www.w3.org/2000/svg" xmlns:svg="http://www.w3.org/2000/svg">
 <g class="layer">
  <title>Layer 1</title>
  <g class="layer" id="svg_1">
   <path d="m26.26,17.55l8.32,0l0,-17.51l-8.32,0l0,17.51z" fill="#d52b1e" id="svg_2"/>
   <path d="m0,17.52l8.32,0l0,-17.52l-8.32,0l0,17.52z" fill="#d52b1e" id="svg_3"/>
   <path d="m16.94,16.12l0.18,-3.08c0.02,-0.33 -0.21,-0.28 -0.21,-0.28l-3.44,0.36l0.48,-1.03a0.39,0.39 0 0 0 -0.16,-0.49l-3.05,-2.65s0.46,-0.31 0.55,-0.4c0.12,-0.12 0.07,-0.23 0.07,-0.23l-0.6,-2.45l1.89,0.55s0.19,0.08 0.26,-0.07c0.07,-0.14 0.35,-0.89 0.35,-0.89l1.69,1.5s0.34,0.23 0.39,-0.07l-0.56,-3.48l1.15,0.54s0.19,0.07 0.26,-0.16l1.13,-2.29l1.13,2.29c0.07,0.23 0.26,0.16 0.26,0.16l1.16,-0.54l-0.57,3.48c0.05,0.3 0.39,0.07 0.39,0.07l1.69,-1.5s0.28,0.75 0.35,0.89c0.07,0.15 0.26,0.07 0.26,0.07l1.89,-0.55l-0.6,2.45s-0.05,0.11 0.07,0.23c0.09,0.09 0.55,0.4 0.55,0.4l-3.05,2.65s-0.28,0.14 -0.16,0.49l0.48,1.03l-3.44,-0.36s-0.23,-0.05 -0.21,0.28l0.18,3.08l-0.76,0z" fill="#d52b1e" id="svg_4"/>
   <path d="m50.15,0.57l0.97,0l0,2.93l3.63,0l0,-2.93l0.97,0l0,7.09l-0.97,0l0,-3.33l-3.63,0l0,3.33l-0.97,0l0,-7.09z" fill="#231f20" id="svg_5"/>
   <path d="m60.32,2.64c0.34,0.18 0.6,0.4 0.78,0.67c0.17,0.26 0.29,0.56 0.35,0.91c0.04,0.23 0.07,0.61 0.07,1.13l-3.75,0c0.01,0.53 0.14,0.95 0.36,1.27c0.24,0.32 0.59,0.48 1.07,0.48q0.68,0 1.08,-0.45c0.15,-0.17 0.25,-0.37 0.31,-0.59l0.86,0c-0.02,0.18 -0.1,0.39 -0.22,0.62c-0.13,0.23 -0.27,0.42 -0.43,0.57c-0.26,0.26 -0.58,0.43 -0.97,0.52c-0.21,0.05 -0.44,0.07 -0.7,0.07c-0.64,0 -1.18,-0.23 -1.63,-0.7c-0.44,-0.47 -0.66,-1.12 -0.66,-1.96c0,-0.83 0.22,-1.5 0.67,-2.02s1.03,-0.77 1.75,-0.77c0.37,0 0.72,0.08 1.06,0.25m0.3,2.02c-0.03,-0.37 -0.12,-0.67 -0.24,-0.9c-0.24,-0.42 -0.63,-0.63 -1.18,-0.63c-0.4,0 -0.73,0.15 -0.99,0.43c-0.27,0.29 -0.41,0.66 -0.43,1.1l2.84,0z" fill="#231f20" id="svg_6"/>
   <path d="m65.38,4.53c0.2,-0.02 0.33,-0.11 0.4,-0.25q0.06,-0.12 0.06,-0.33c0,-0.29 -0.1,-0.5 -0.31,-0.63c-0.21,-0.14 -0.51,-0.2 -0.9,-0.2q-0.68,0 -0.96,0.36c-0.1,0.13 -0.17,0.33 -0.2,0.59l-0.82,0c0.02,-0.63 0.22,-1.07 0.62,-1.32c0.39,-0.25 0.85,-0.38 1.37,-0.38c0.61,0 1.1,0.12 1.48,0.35c0.38,0.24 0.57,0.6 0.57,1.09l0,2.96c0,0.09 0.01,0.16 0.05,0.22c0.04,0.05 0.12,0.08 0.24,0.08c0.04,0 0.08,0 0.13,-0.01c0.05,0 0.1,-0.01 0.15,-0.02l0,0.65c-0.13,0.03 -0.24,0.06 -0.31,0.07s-0.17,0.01 -0.29,0.01c-0.3,0 -0.52,-0.1 -0.65,-0.32q-0.11,-0.16 -0.15,-0.48c-0.18,0.24 -0.43,0.44 -0.76,0.61c-0.33,0.18 -0.7,0.26 -1.09,0.26c-0.48,0 -0.87,-0.14 -1.17,-0.44c-0.31,-0.29 -0.46,-0.65 -0.46,-1.09c0,-0.48 0.15,-0.85 0.45,-1.12c0.3,-0.26 0.69,-0.42 1.17,-0.49l1.38,-0.17zm-1.82,2.35c0.18,0.14 0.4,0.22 0.65,0.22c0.3,0 0.6,-0.07 0.88,-0.22c0.48,-0.23 0.72,-0.62 0.72,-1.15l0,-0.7c-0.1,0.07 -0.24,0.13 -0.4,0.18c-0.17,0.04 -0.33,0.07 -0.49,0.09l-0.52,0.07c-0.31,0.03 -0.55,0.1 -0.71,0.19c-0.27,0.15 -0.41,0.39 -0.41,0.72c0,0.25 0.09,0.45 0.28,0.6" fill="#231f20" id="svg_7"/>
   <path d="m68.14,7.66l0.87,0l0,-7.07l-0.87,0l0,7.07z" fill="#231f20" id="svg_8"/>
   <path d="m70.48,1.05l0.87,0l0,1.44l0.83,0l0,0.71l-0.83,0l0,3.36c0,0.18 0.07,0.3 0.19,0.36c0.07,0.03 0.18,0.05 0.34,0.05l0.14,0c0.04,0 0.1,-0.01 0.16,-0.01l0,0.7c-0.09,0.03 -0.2,0.05 -0.31,0.06c-0.1,0.02 -0.22,0.02 -0.35,0.02c-0.4,0 -0.67,-0.1 -0.82,-0.31c-0.14,-0.21 -0.22,-0.47 -0.22,-0.81l0,-3.42l-0.7,0l0,-0.71l0.7,0l0,-1.44z" fill="#231f20" id="svg_9"/>
   <path d="m73.04,0.56l0.87,0l0,2.63c0.21,-0.25 0.39,-0.44 0.56,-0.54c0.27,-0.19 0.62,-0.28 1.04,-0.28c0.75,0 1.25,0.26 1.52,0.79c0.14,0.28 0.22,0.68 0.22,1.19l0,3.31l-0.89,0l0,-3.26c0,-0.38 -0.05,-0.65 -0.14,-0.83c-0.16,-0.28 -0.46,-0.43 -0.89,-0.43c-0.36,0 -0.69,0.13 -0.98,0.38c-0.29,0.24 -0.44,0.71 -0.44,1.4l0,2.74l-0.87,0l0,-7.1z" fill="#231f20" id="svg_10"/>
   <path d="m55.14,10.96c0.49,0.48 0.76,1.01 0.82,1.62l-0.93,0c-0.11,-0.46 -0.31,-0.82 -0.62,-1.08c-0.32,-0.27 -0.75,-0.4 -1.32,-0.4c-0.68,0 -1.24,0.24 -1.66,0.73q-0.63,0.74 -0.63,2.25q0,1.25 0.57,2.01c0.38,0.52 0.94,0.78 1.7,0.78c0.69,0 1.22,-0.28 1.59,-0.82c0.19,-0.28 0.33,-0.66 0.43,-1.12l0.92,0c-0.08,0.74 -0.35,1.36 -0.81,1.87c-0.56,0.6 -1.31,0.91 -2.25,0.91c-0.81,0 -1.5,-0.25 -2.05,-0.75c-0.73,-0.66 -1.09,-1.67 -1.09,-3.05c0,-1.04 0.28,-1.9 0.82,-2.57c0.59,-0.72 1.41,-1.08 2.45,-1.08c0.88,0 1.57,0.23 2.06,0.7" fill="#231f20" id="svg_11"/>
   <path d="m59.89,14.4c0.2,-0.03 0.34,-0.11 0.4,-0.25q0.06,-0.12 0.06,-0.33c0,-0.29 -0.1,-0.51 -0.31,-0.64s-0.51,-0.2 -0.9,-0.2c-0.45,0 -0.77,0.12 -0.96,0.37c-0.1,0.13 -0.17,0.33 -0.2,0.59l-0.82,0c0.02,-0.64 0.22,-1.08 0.62,-1.33s0.86,-0.37 1.38,-0.37c0.6,0 1.1,0.12 1.47,0.35q0.57,0.36 0.57,1.08l0,2.97c0,0.09 0.02,0.16 0.05,0.21q0.06,0.09 0.24,0.09c0.04,0 0.08,-0.01 0.13,-0.01c0.05,-0.01 0.1,-0.01 0.15,-0.02l0,0.64a2,2 0 0 1 -0.6,0.09c-0.3,0 -0.51,-0.11 -0.65,-0.32q-0.1,-0.16 -0.15,-0.48c-0.18,0.23 -0.43,0.44 -0.76,0.61s-0.69,0.26 -1.09,0.26c-0.48,0 -0.87,-0.15 -1.17,-0.44s-0.46,-0.65 -0.46,-1.09c0,-0.48 0.15,-0.86 0.45,-1.12c0.3,-0.27 0.69,-0.43 1.17,-0.49l1.38,-0.17zm-1.82,2.35c0.18,0.14 0.4,0.21 0.65,0.21c0.3,0 0.6,-0.07 0.88,-0.21c0.49,-0.24 0.73,-0.62 0.73,-1.15l0,-0.7c-0.11,0.07 -0.24,0.13 -0.41,0.17c-0.17,0.05 -0.33,0.08 -0.49,0.1l-0.52,0.06c-0.31,0.04 -0.55,0.1 -0.71,0.19c-0.27,0.16 -0.4,0.4 -0.4,0.73q0,0.38 0.27,0.6" fill="#231f20" id="svg_12"/>
   <path d="m62.62,12.35l0.83,0l0,0.76q0.36,-0.46 0.78,-0.66c0.27,-0.13 0.57,-0.2 0.9,-0.2c0.74,0 1.23,0.26 1.48,0.77c0.14,0.28 0.22,0.68 0.22,1.2l0,3.31l-0.88,0l0,-3.25c0,-0.31 -0.04,-0.57 -0.14,-0.76c-0.15,-0.32 -0.43,-0.48 -0.83,-0.48q-0.32,0 -0.51,0.06c-0.24,0.07 -0.45,0.21 -0.63,0.43c-0.14,0.17 -0.24,0.34 -0.28,0.52s-0.07,0.44 -0.07,0.78l0,2.7l-0.87,0l0,-5.18z" fill="#231f20" id="svg_13"/>
   <path d="m70.87,14.4c0.2,-0.03 0.33,-0.11 0.4,-0.25q0.06,-0.12 0.06,-0.33c0,-0.29 -0.1,-0.51 -0.31,-0.64s-0.51,-0.2 -0.9,-0.2c-0.45,0 -0.77,0.12 -0.96,0.37c-0.11,0.13 -0.18,0.33 -0.21,0.59l-0.81,0c0.01,-0.64 0.22,-1.08 0.61,-1.33c0.4,-0.25 0.86,-0.37 1.38,-0.37c0.61,0 1.1,0.12 1.48,0.35c0.38,0.24 0.56,0.6 0.56,1.08l0,2.97q0,0.14 0.06,0.21c0.04,0.06 0.11,0.09 0.23,0.09c0.04,0 0.09,-0.01 0.13,-0.01c0.05,-0.01 0.1,-0.01 0.16,-0.02l0,0.64a2,2 0 0 1 -0.6,0.09c-0.3,0 -0.52,-0.11 -0.66,-0.32q-0.11,-0.16 -0.15,-0.48c-0.17,0.23 -0.42,0.44 -0.75,0.61c-0.34,0.17 -0.7,0.26 -1.1,0.26c-0.47,0 -0.86,-0.15 -1.17,-0.44c-0.3,-0.29 -0.45,-0.65 -0.45,-1.09c0,-0.48 0.15,-0.86 0.45,-1.12c0.29,-0.27 0.68,-0.43 1.17,-0.49l1.38,-0.17zm-1.83,2.35c0.19,0.14 0.4,0.21 0.65,0.21c0.31,0 0.6,-0.07 0.89,-0.21c0.48,-0.24 0.72,-0.62 0.72,-1.15l0,-0.7c-0.1,0.07 -0.24,0.13 -0.41,0.17c-0.16,0.05 -0.33,0.08 -0.48,0.1l-0.53,0.06c-0.31,0.04 -0.54,0.1 -0.7,0.19c-0.27,0.16 -0.41,0.4 -0.41,0.73q0,0.38 0.27,0.6" fill="#231f20" id="svg_14"/>
   <path d="m76.44,12.53c0.15,0.09 0.32,0.26 0.52,0.5l0,-2.6l0.83,0l0,7.1l-0.78,0l0,-0.71c-0.2,0.31 -0.44,0.54 -0.71,0.68c-0.28,0.14 -0.59,0.21 -0.95,0.21c-0.57,0 -1.06,-0.24 -1.48,-0.72c-0.42,-0.49 -0.63,-1.13 -0.63,-1.93c0,-0.75 0.19,-1.4 0.58,-1.95c0.38,-0.55 0.92,-0.83 1.63,-0.83c0.39,0 0.72,0.08 0.99,0.25m-1.95,3.87c0.23,0.38 0.61,0.56 1.12,0.56c0.39,0 0.72,-0.17 0.98,-0.52c0.25,-0.34 0.38,-0.84 0.38,-1.49s-0.13,-1.14 -0.4,-1.45c-0.26,-0.32 -0.58,-0.47 -0.97,-0.47c-0.43,0 -0.78,0.16 -1.05,0.5s-0.41,0.83 -0.41,1.48c0,0.55 0.12,1.02 0.35,1.39" fill="#231f20" id="svg_15"/>
   <path d="m81.84,14.4c0.2,-0.03 0.33,-0.11 0.4,-0.25q0.06,-0.12 0.06,-0.33c0,-0.29 -0.1,-0.51 -0.31,-0.64s-0.51,-0.2 -0.9,-0.2c-0.45,0 -0.77,0.12 -0.96,0.37c-0.1,0.13 -0.17,0.33 -0.2,0.59l-0.82,0c0.02,-0.64 0.22,-1.08 0.62,-1.33s0.86,-0.37 1.38,-0.37c0.6,0 1.1,0.12 1.47,0.35q0.57,0.36 0.57,1.08l0,2.97c0,0.09 0.02,0.16 0.05,0.21q0.06,0.09 0.24,0.09c0.04,0 0.08,-0.01 0.13,-0.01c0.05,-0.01 0.1,-0.01 0.15,-0.02l0,0.64a2,2 0 0 1 -0.6,0.09c-0.3,0 -0.52,-0.11 -0.65,-0.32q-0.11,-0.16 -0.15,-0.48c-0.18,0.23 -0.43,0.44 -0.76,0.61s-0.69,0.26 -1.09,0.26c-0.48,0 -0.87,-0.15 -1.17,-0.44s-0.46,-0.65 -0.46,-1.09c0,-0.48 0.15,-0.86 0.45,-1.12c0.3,-0.27 0.69,-0.43 1.17,-0.49l1.38,-0.17zm-1.82,2.35c0.18,0.14 0.4,0.21 0.65,0.21c0.3,0 0.6,-0.07 0.88,-0.21c0.48,-0.24 0.72,-0.62 0.72,-1.15l0,-0.7c-0.1,0.07 -0.24,0.13 -0.4,0.17c-0.17,0.05 -0.33,0.08 -0.49,0.1l-0.52,0.06c-0.31,0.04 -0.55,0.1 -0.71,0.19c-0.27,0.16 -0.41,0.4 -0.41,0.73c0,0.25 0.1,0.45 0.28,0.6" fill="#231f20" id="svg_16"/>
   <path d="m100.09,5.37c0.02,0.4 0.11,0.73 0.27,0.98c0.31,0.47 0.85,0.71 1.62,0.71c0.35,0 0.67,-0.06 0.95,-0.16c0.55,-0.2 0.83,-0.56 0.83,-1.07c0,-0.38 -0.12,-0.66 -0.35,-0.82c-0.24,-0.16 -0.61,-0.3 -1.11,-0.41l-0.93,-0.22c-0.61,-0.13 -1.04,-0.29 -1.29,-0.46c-0.44,-0.3 -0.65,-0.74 -0.65,-1.34c0,-0.64 0.21,-1.16 0.64,-1.57c0.42,-0.42 1.03,-0.62 1.81,-0.62c0.72,0 1.33,0.18 1.84,0.54q0.75,0.53 0.75,1.71l-0.9,0c-0.04,-0.37 -0.14,-0.66 -0.29,-0.86c-0.28,-0.37 -0.75,-0.55 -1.42,-0.55q-0.81,0 -1.17,0.36c-0.23,0.24 -0.35,0.51 -0.35,0.83c0,0.34 0.14,0.6 0.42,0.76c0.18,0.1 0.6,0.23 1.24,0.38l0.96,0.23c0.47,0.11 0.82,0.26 1.07,0.45q0.66,0.5 0.66,1.44c0,0.78 -0.28,1.35 -0.84,1.68c-0.55,0.34 -1.2,0.51 -1.94,0.51c-0.85,0 -1.52,-0.23 -2.01,-0.68s-0.72,-1.05 -0.71,-1.82l0.9,0z" fill="#231f20" id="svg_17"/>
   <path d="m108.68,4.53c0.2,-0.02 0.33,-0.11 0.4,-0.25q0.06,-0.12 0.06,-0.33c0,-0.29 -0.1,-0.5 -0.31,-0.63c-0.21,-0.14 -0.51,-0.2 -0.9,-0.2q-0.68,0 -0.96,0.36c-0.1,0.13 -0.17,0.33 -0.2,0.59l-0.82,0c0.02,-0.63 0.22,-1.07 0.62,-1.32c0.39,-0.25 0.85,-0.38 1.38,-0.38c0.6,0 1.09,0.12 1.47,0.35c0.38,0.24 0.57,0.6 0.57,1.09l0,2.96c0,0.09 0.01,0.16 0.05,0.22c0.04,0.05 0.12,0.08 0.24,0.08c0.04,0 0.08,0 0.13,-0.01c0.05,0 0.1,-0.01 0.15,-0.02l0,0.65c-0.13,0.03 -0.24,0.06 -0.31,0.07s-0.17,0.01 -0.29,0.01c-0.3,0 -0.52,-0.1 -0.65,-0.32q-0.11,-0.16 -0.15,-0.48c-0.18,0.24 -0.43,0.44 -0.76,0.61c-0.33,0.18 -0.69,0.26 -1.09,0.26c-0.48,0 -0.87,-0.14 -1.17,-0.44c-0.31,-0.29 -0.46,-0.65 -0.46,-1.09c0,-0.48 0.15,-0.85 0.45,-1.12c0.3,-0.26 0.69,-0.42 1.17,-0.49l1.38,-0.17zm-1.82,2.35c0.18,0.14 0.4,0.22 0.65,0.22c0.3,0 0.6,-0.07 0.88,-0.22c0.48,-0.23 0.72,-0.62 0.72,-1.15l0,-0.7c-0.1,0.07 -0.24,0.13 -0.4,0.18c-0.17,0.04 -0.33,0.07 -0.49,0.09l-0.52,0.07c-0.31,0.03 -0.55,0.1 -0.71,0.19c-0.27,0.15 -0.41,0.39 -0.41,0.72c0,0.25 0.1,0.45 0.28,0.6" fill="#231f20" id="svg_18"/>
   <path d="m111.41,2.49l0.83,0l0,0.75c0.24,-0.3 0.5,-0.52 0.77,-0.66c0.28,-0.13 0.58,-0.19 0.91,-0.19c0.73,0 1.23,0.25 1.48,0.76q0.21,0.42 0.21,1.2l0,3.31l-0.87,0l0,-3.25c0,-0.31 -0.04,-0.56 -0.14,-0.76q-0.22,-0.48 -0.84,-0.48c-0.2,0 -0.37,0.03 -0.5,0.07q-0.36,0.1 -0.63,0.42c-0.15,0.17 -0.24,0.35 -0.28,0.53c-0.05,0.18 -0.07,0.44 -0.07,0.77l0,2.7l-0.87,0l0,-5.17z" fill="#231f20" id="svg_19"/>
   <path d="m117.08,1.05l0.87,0l0,1.44l0.83,0l0,0.71l-0.83,0l0,3.36q0,0.27 0.18,0.36c0.07,0.03 0.19,0.05 0.34,0.05l0.14,0c0.05,0 0.11,-0.01 0.17,-0.01l0,0.7c-0.1,0.03 -0.2,0.05 -0.31,0.06c-0.11,0.02 -0.22,0.02 -0.35,0.02c-0.4,0 -0.68,-0.1 -0.82,-0.31c-0.15,-0.21 -0.22,-0.47 -0.22,-0.81l0,-3.42l-0.7,0l0,-0.71l0.7,0l0,-1.44z" fill="#231f20" id="svg_20"/>
   <path d="m122.82,2.64c0.34,0.18 0.61,0.4 0.78,0.67c0.18,0.26 0.29,0.56 0.35,0.91c0.05,0.23 0.07,0.61 0.07,1.13l-3.75,0c0.02,0.53 0.14,0.95 0.37,1.27s0.58,0.48 1.07,0.48c0.45,0 0.81,-0.15 1.07,-0.45c0.15,-0.17 0.26,-0.37 0.32,-0.59l0.86,0c-0.03,0.18 -0.1,0.39 -0.23,0.62s-0.27,0.42 -0.43,0.57c-0.26,0.26 -0.58,0.43 -0.97,0.52c-0.2,0.05 -0.44,0.07 -0.7,0.07c-0.64,0 -1.18,-0.23 -1.62,-0.7s-0.67,-1.12 -0.67,-1.96c0,-0.83 0.23,-1.5 0.67,-2.02c0.45,-0.52 1.03,-0.77 1.76,-0.77c0.36,0 0.71,0.08 1.05,0.25m0.31,2.02c-0.04,-0.37 -0.12,-0.67 -0.25,-0.9c-0.23,-0.42 -0.63,-0.63 -1.18,-0.63c-0.39,0 -0.72,0.15 -0.99,0.43c-0.27,0.29 -0.41,0.66 -0.42,1.1l2.84,0zm-0.14,-4.26l-1.29,1.41l-0.67,0l0.88,-1.41l1.08,0z" fill="#231f20" id="svg_21"/>
   <path d="m104.47,10.96c0.49,0.48 0.77,1.01 0.82,1.62l-0.93,0c-0.1,-0.46 -0.31,-0.82 -0.62,-1.08c-0.31,-0.27 -0.75,-0.4 -1.31,-0.4c-0.69,0 -1.25,0.24 -1.67,0.73q-0.63,0.74 -0.63,2.25q0,1.25 0.57,2.01c0.38,0.52 0.95,0.78 1.7,0.78c0.7,0 1.22,-0.28 1.59,-0.82c0.19,-0.28 0.33,-0.66 0.43,-1.12l0.93,0c-0.09,0.74 -0.36,1.36 -0.82,1.87c-0.56,0.6 -1.31,0.91 -2.25,0.91c-0.81,0 -1.49,-0.25 -2.05,-0.75c-0.72,-0.66 -1.09,-1.67 -1.09,-3.05c0,-1.04 0.28,-1.9 0.82,-2.57c0.6,-0.72 1.41,-1.08 2.45,-1.08c0.89,0 1.58,0.23 2.06,0.7" fill="#231f20" id="svg_22"/>
   <path d="m109.23,14.4c0.2,-0.03 0.33,-0.11 0.4,-0.25q0.06,-0.12 0.06,-0.33c0,-0.29 -0.11,-0.51 -0.32,-0.64s-0.51,-0.2 -0.9,-0.2c-0.45,0 -0.76,0.12 -0.95,0.37c-0.11,0.13 -0.18,0.33 -0.21,0.59l-0.82,0c0.02,-0.64 0.23,-1.08 0.62,-1.33c0.4,-0.25 0.86,-0.37 1.38,-0.37c0.61,0 1.1,0.12 1.48,0.35c0.37,0.24 0.56,0.6 0.56,1.08l0,2.97q0,0.14 0.06,0.21c0.03,0.06 0.11,0.09 0.23,0.09c0.04,0 0.08,-0.01 0.13,-0.01c0.05,-0.01 0.1,-0.01 0.16,-0.02l0,0.64a2,2 0 0 1 -0.6,0.09c-0.3,0 -0.52,-0.11 -0.66,-0.32q-0.11,-0.16 -0.15,-0.48c-0.17,0.23 -0.43,0.44 -0.76,0.61s-0.69,0.26 -1.09,0.26c-0.48,0 -0.87,-0.15 -1.17,-0.44s-0.45,-0.65 -0.45,-1.09c0,-0.48 0.15,-0.86 0.45,-1.12c0.29,-0.27 0.68,-0.43 1.17,-0.49l1.38,-0.17zm-1.83,2.35c0.18,0.14 0.4,0.21 0.65,0.21c0.31,0 0.6,-0.07 0.89,-0.21c0.48,-0.24 0.72,-0.62 0.72,-1.15l0,-0.7c-0.11,0.07 -0.24,0.13 -0.41,0.17c-0.16,0.05 -0.33,0.08 -0.49,0.1l-0.52,0.06c-0.31,0.04 -0.55,0.1 -0.71,0.19c-0.27,0.16 -0.4,0.4 -0.4,0.73q0,0.38 0.27,0.6" fill="#231f20" id="svg_23"/>
   <path d="m111.95,12.35l0.83,0l0,0.76q0.37,-0.46 0.78,-0.66c0.27,-0.13 0.57,-0.2 0.91,-0.2c0.73,0 1.22,0.26 1.48,0.77q0.21,0.42 0.21,1.2l0,3.31l-0.87,0l0,-3.25c0,-0.31 -0.05,-0.57 -0.14,-0.76q-0.24,-0.48 -0.84,-0.48q-0.32,0 -0.51,0.06c-0.24,0.07 -0.45,0.21 -0.63,0.43c-0.14,0.17 -0.24,0.34 -0.28,0.52s-0.07,0.44 -0.07,0.78l0,2.7l-0.87,0l0,-5.18z" fill="#231f20" id="svg_24"/>
   <path d="m120.2,14.4c0.2,-0.03 0.33,-0.11 0.4,-0.25q0.06,-0.12 0.06,-0.33c0,-0.29 -0.1,-0.51 -0.31,-0.64s-0.51,-0.2 -0.9,-0.2c-0.45,0 -0.77,0.12 -0.96,0.37c-0.1,0.13 -0.17,0.33 -0.2,0.59l-0.82,0c0.02,-0.64 0.22,-1.08 0.62,-1.33c0.39,-0.25 0.85,-0.37 1.38,-0.37c0.6,0 1.09,0.12 1.47,0.35q0.57,0.36 0.57,1.08l0,2.97c0,0.09 0.01,0.16 0.05,0.21q0.06,0.09 0.24,0.09c0.03,0 0.08,-0.01 0.13,-0.01c0.04,-0.01 0.1,-0.01 0.15,-0.02l0,0.64a2,2 0 0 1 -0.6,0.09c-0.3,0 -0.52,-0.11 -0.65,-0.32q-0.11,-0.16 -0.15,-0.48c-0.18,0.23 -0.43,0.44 -0.76,0.61s-0.7,0.26 -1.09,0.26c-0.48,0 -0.87,-0.15 -1.17,-0.44c-0.31,-0.29 -0.46,-0.65 -0.46,-1.09c0,-0.48 0.15,-0.86 0.45,-1.12c0.3,-0.27 0.69,-0.43 1.17,-0.49l1.38,-0.17zm-1.82,2.35c0.18,0.14 0.39,0.21 0.65,0.21c0.3,0 0.6,-0.07 0.88,-0.21c0.48,-0.24 0.72,-0.62 0.72,-1.15l0,-0.7c-0.1,0.07 -0.24,0.13 -0.4,0.17c-0.17,0.05 -0.33,0.08 -0.49,0.1l-0.52,0.06c-0.31,0.04 -0.55,0.1 -0.71,0.19c-0.27,0.16 -0.41,0.4 -0.41,0.73c0,0.25 0.09,0.45 0.28,0.6" fill="#231f20" id="svg_25"/>
   <path d="m125.77,12.53c0.15,0.09 0.33,0.26 0.52,0.5l0,-2.6l0.83,0l0,7.1l-0.77,0l0,-0.71c-0.21,0.31 -0.44,0.54 -0.72,0.68c-0.27,0.14 -0.59,0.21 -0.94,0.21c-0.57,0 -1.07,-0.24 -1.49,-0.72c-0.41,-0.49 -0.62,-1.13 -0.62,-1.93q0,-1.12 0.57,-1.95c0.38,-0.55 0.92,-0.83 1.63,-0.83c0.39,0 0.72,0.08 0.99,0.25m-1.95,3.87c0.24,0.38 0.61,0.56 1.12,0.56c0.4,0 0.72,-0.17 0.98,-0.52c0.26,-0.34 0.38,-0.84 0.38,-1.49s-0.13,-1.14 -0.39,-1.45c-0.27,-0.32 -0.59,-0.47 -0.98,-0.47c-0.43,0 -0.78,0.16 -1.05,0.5s-0.4,0.83 -0.4,1.48c0,0.55 0.11,1.02 0.34,1.39" fill="#231f20" id="svg_26"/>
   <path d="m131.18,14.4c0.19,-0.03 0.33,-0.11 0.39,-0.25c0.05,-0.08 0.06,-0.19 0.06,-0.33c0,-0.29 -0.1,-0.51 -0.31,-0.64s-0.51,-0.2 -0.9,-0.2c-0.45,0 -0.77,0.12 -0.96,0.37c-0.1,0.13 -0.17,0.33 -0.2,0.59l-0.82,0c0.02,-0.64 0.23,-1.08 0.62,-1.33c0.4,-0.25 0.86,-0.37 1.38,-0.37c0.61,0 1.1,0.12 1.48,0.35c0.37,0.24 0.56,0.6 0.56,1.08l0,2.97q0,0.14 0.06,0.21c0.03,0.06 0.11,0.09 0.23,0.09c0.04,0 0.08,-0.01 0.13,-0.01c0.05,-0.01 0.1,-0.01 0.16,-0.02l0,0.64a2,2 0 0 1 -0.6,0.09c-0.3,0 -0.52,-0.11 -0.66,-0.32q-0.11,-0.16 -0.15,-0.48c-0.18,0.23 -0.43,0.44 -0.76,0.61s-0.69,0.26 -1.09,0.26c-0.48,0 -0.87,-0.15 -1.17,-0.44s-0.45,-0.65 -0.45,-1.09c0,-0.48 0.15,-0.86 0.44,-1.12c0.3,-0.27 0.69,-0.43 1.18,-0.49l1.38,-0.17zm-1.83,2.35c0.18,0.14 0.4,0.21 0.65,0.21c0.3,0 0.6,-0.07 0.89,-0.21c0.48,-0.24 0.72,-0.62 0.72,-1.15l0,-0.7c-0.11,0.07 -0.24,0.13 -0.41,0.17c-0.16,0.05 -0.33,0.08 -0.49,0.1l-0.52,0.06c-0.31,0.04 -0.55,0.1 -0.71,0.19c-0.27,0.16 -0.4,0.4 -0.4,0.73q0,0.38 0.27,0.6" fill="#231f20" id="svg_27"/>
  </g>
 </g>
</svg>