<?xml version="1.0" encoding="utf-8"?>
<!-- Generator: Adobe Illustrator 25.0.1, SVG Export Plug-In . SVG Version: 6.00 Build 0)  -->
<svg version="1.2" baseProfile="tiny" id="레이어_1"
	 xmlns="http://www.w3.org/2000/svg" xmlns:xlink="http://www.w3.org/1999/xlink" x="0px" y="0px" viewBox="0 0 2048 490.37"
	 overflow="visible" xml:space="preserve">
<g>
	<g>
		<path fill="#FFFFFF" d="M477.075,250.1408c0,97.647-79.1666,176.8065-176.8065,176.8065
			c-97.6494,0-176.8065-79.1595-176.8065-176.8065c0-97.6423,79.1571-176.8018,176.8065-176.8018
			C397.9084,73.3389,477.075,152.4984,477.075,250.1408z"/>
		<g>
			<g>
				<g>
					<g>
						<g>
							<g>
								<path fill="#003764" d="M383.2537,237.8173c-28.1229-19.1129-64.1276-11.33-83.0587,17.4069
									c-15.7467,24.0193-39.58,27.0079-48.7604,27.0079c-30.1118,0-50.6571-21.1658-56.7637-43.0559
									c0,0-0.2985-1.1084-0.3767-1.3589c-2.4005-9.1503-3.0074-13.4959-3.0074-23.2052
									c0-52.3192,53.7219-110.6006,131.0305-110.6006c79.2009,0,124.5287,60.2905,136.2406,93.8076
									c-0.2345-0.63-0.4252-1.1908-0.6159-1.7818c-22.4697-65.5463-84.6158-112.6582-157.825-112.6582
									c-92.0485,0-166.7178,74.6302-166.7178,166.7569c0,82.3257,59.3775,152.7876,141.7582,152.7876
									c65.6706,0,109.8232-36.8185,130.0468-87.586C416.3249,287.5595,408.4709,254.9436,383.2537,237.8173z"/>
							</g>
							<g>
								<path fill="#E4032E" d="M459.5786,201.0564c-9.769-32.6983-55.3888-97.0448-137.2614-97.0448
									c-77.3085,0-131.0305,58.2813-131.0305,110.6006c0,9.7092,0.6069,14.0549,3.0074,23.2052
									c-1.0048-4.0075-1.5176-7.9962-1.5176-11.8978c0-54.5036,54.5587-92.258,110.6509-92.258
									c75.9524,0,137.5072,61.5571,137.5072,137.4775c0,59.5131-34.2573,111.0625-84.0061,135.8059v0.046
									c64.1554-23.2352,109.9682-84.6914,109.9682-156.8548C466.8968,233.0559,464.607,217.992,459.5786,201.0564z"/>
							</g>
						</g>
					</g>
				</g>
			</g>
		</g>
	</g>
	<g>
		<path fill="#575757" d="M596.322,165.7954l52.6488,80.2153l-16.8475,10.912l-35.8013-55.3268l-35.4162,56.6669l-17.2302-10.912
			L596.322,165.7954z M559.1829,270.3245h133.2468v61.645h-20.6758v-43.2668H559.1829V270.3245z M671.7538,166.7529h20.6758V260.37
			h-20.6758V166.7529z"/>
		<path fill="#575757" d="M787.001,274.9198v-13.5939h-66.0482v-17.9955h153.1565v17.9955h-66.2403v13.5939h53.9866v55.7094H733.205
			v-55.7094H787.001z M731.29,168.8585h132.4807v17.805h-22.0161v25.8444h22.0161v17.6128H731.29v-17.6128h22.0161v-25.8444H731.29
			V168.8585z M841.3719,292.5327h-87.6815v20.2932h87.6815V292.5327z M821.6535,186.6635h-48.2448v25.8444h48.2448V186.6635z"/>
		<path fill="#575757" d="M1006.3962,296.1689v18.3798H894.782v-18.3798H1006.3962z M996.4402,219.2088
			c0,6.2547-1.2767,12.1561-3.8284,17.7089c-2.555,5.5512-6.0007,10.4332-10.3387,14.6443
			c-4.2111,4.0873-9.1891,7.3409-14.9325,9.7639c-5.7434,2.4263-11.8695,3.6379-18.3782,3.6379
			c-6.5104,0-12.669-1.2115-18.4742-3.6379c-5.8102-2.4231-10.8175-5.6766-15.0286-9.7639
			c-4.3414-4.2111-7.787-9.093-10.3387-14.6443c-2.555-5.5529-3.8284-11.4542-3.8284-17.7089
			c0-6.2514,1.2734-12.1577,3.8284-17.7089c2.5517-5.5512,5.9974-10.4332,10.3387-14.6459
			c4.2111-4.0824,9.2184-7.3376,15.0286-9.7639c5.8052-2.4231,11.9639-3.6379,18.4742-3.6379
			c6.5087,0,12.6348,1.2148,18.3782,3.6379c5.7433,2.4263,10.7214,5.6815,14.9325,9.7639
			c4.3381,4.2127,7.7838,9.0947,10.3387,14.6459C995.1635,207.0511,996.4402,212.9574,996.4402,219.2088z M976.3391,219.2088
			c0-3.7014-0.736-7.209-2.2016-10.5293c-1.4688-3.3187-3.4164-6.2531-5.8395-8.8064c-2.5549-2.4231-5.4893-4.3706-8.8064-5.8395
			c-3.3203-1.4656-6.8295-2.2016-10.5293-2.2016c-3.7046,0-7.2122,0.736-10.5292,2.2016c-3.322,1.4688-6.2563,3.4164-8.8081,5.8395
			c-2.4247,2.5533-4.3723,5.4877-5.8378,8.8064c-1.4688,3.3203-2.2016,6.8279-2.2016,10.5293c0,3.703,0.7328,7.2122,2.2016,10.5293
			c1.4656,3.3203,3.4131,6.2547,5.8378,8.8064c2.5518,2.4263,5.4861,4.3739,8.8081,5.8395
			c3.317,1.4688,6.8246,2.2016,10.5292,2.2016c3.6998,0,7.209-0.7328,10.5293-2.2016c3.3171-1.4656,6.2515-3.4131,8.8064-5.8395
			c2.4231-2.5517,4.3707-5.4861,5.8395-8.8064C975.6031,226.421,976.3391,222.9118,976.3391,219.2088z M1018.8389,166.7529h20.6758
			v166.7488h-20.6758V166.7529z"/>
		<path fill="#575757" d="M1158.592,211.5504c0,6.0007-1.2148,11.648-3.6362,16.9436c-2.4264,5.2972-5.7434,9.9251-9.9561,13.8789
			c-4.2111,3.9587-9.1273,7.0836-14.7421,9.3813c-5.6163,2.2977-11.5519,3.4457-17.8033,3.4457
			c-6.2546,0-12.1902-1.148-17.8049-3.4457c-5.618-2.2977-10.5293-5.4226-14.7404-9.3813
			c-4.2126-3.9538-7.5331-8.5817-9.9561-13.8789c-2.4264-5.2956-3.6379-10.9429-3.6379-16.9436
			c0-5.9974,1.2115-11.6447,3.6379-16.9419c2.423-5.2956,5.7434-9.9235,9.9561-13.8805c4.2111-3.9538,9.1223-7.0836,14.7404-9.3813
			c5.6147-2.2977,11.5503-3.4457,17.8049-3.4457c6.2515,0,12.187,1.148,17.8033,3.4457c5.6147,2.2977,10.531,5.4275,14.7421,9.3813
			c4.2126,3.957,7.5297,8.585,9.9561,13.8805C1157.3772,199.9057,1158.592,205.553,1158.592,211.5504z M1073.9735,270.3245h131.3309
			v61.645h-20.6758v-43.2668h-110.6552V270.3245z M1138.491,211.7426c0-3.5727-0.7035-6.9224-2.1055-10.0522
			c-1.407-3.1249-3.2552-5.9014-5.553-8.3277c-2.4263-2.2961-5.201-4.1459-8.3276-5.5512
			c-3.1282-1.4037-6.4794-2.1055-10.0505-2.1055c-3.5743,0-6.8931,0.7018-9.9561,2.1055c-3.063,1.4053-5.8085,3.2552-8.2316,5.5512
			c-2.2977,2.4263-4.1492,5.2028-5.5513,8.3277c-1.407,3.1298-2.1072,6.4794-2.1072,10.0522c0,3.5744,0.7002,6.8914,2.1072,9.9545
			c1.4021,3.063,3.2535,5.8102,5.5513,8.2316c2.4231,2.2977,5.1686,4.1492,8.2316,5.5529c3.063,1.4053,6.3817,2.1055,9.9561,2.1055
			c3.5712,0,6.9224-0.7002,10.0505-2.1055c3.1266-1.4037,5.9014-3.2552,8.3276-5.5529c2.2977-2.4214,4.146-5.1686,5.553-8.2316
			C1137.7875,218.634,1138.491,215.3169,1138.491,211.7426z M1205.3044,260.37h-20.6758v-93.6171h20.6758v17.4207h23.9312v17.9955
			h-23.9312v18.7625h23.9312v17.9955h-23.9312V260.37z"/>
		<path fill="#575757" d="M1310.7878,274.9198v-13.5939h-66.0482v-17.9955h153.1565v17.9955h-66.2404v13.5939h53.9866v55.7094
			h-128.6506v-55.7094H1310.7878z M1255.0768,168.8585h132.4806v17.805h-22.016v25.8444h22.016v17.6128h-132.4806v-17.6128h22.016
			v-25.8444h-22.016V168.8585z M1365.1587,292.5327h-87.6816v20.2932h87.6816V292.5327z M1345.4403,186.6635h-48.2449v25.8444
			h48.2449V186.6635z"/>
		<path fill="#575757" d="M1509.8882,213.4654c0,6.2547-1.2441,12.1267-3.7323,17.6128
			c-2.4883,5.4894-5.9047,10.3371-10.2427,14.5498c-4.3397,4.0857-9.3503,7.3409-15.0286,9.7639
			c-5.6799,2.4263-11.7734,3.6378-18.2821,3.6378c-6.5104,0-12.6056-1.2115-18.2838-3.6378
			c-5.6798-2.4231-10.6904-5.6783-15.0286-9.7639c-4.3397-4.2127-7.7528-9.0605-10.2427-14.5498
			c-2.4882-5.4861-3.7323-11.3581-3.7323-17.6128c0-6.2514,1.2441-12.1235,3.7323-17.6129
			c2.4899-5.4861,5.903-10.3387,10.2427-14.5498c4.3381-4.084,9.3488-7.3376,15.0286-9.7639
			c5.6782-2.4231,11.7734-3.6378,18.2838-3.6378c6.5087,0,12.6022,1.2148,18.2821,3.6378
			c5.6782,2.4263,10.6888,5.6799,15.0286,9.7639c4.338,4.2111,7.7544,9.0637,10.2427,14.5498
			C1508.644,201.3419,1509.8882,207.214,1509.8882,213.4654z M1446.5204,274.5356v37.3328h112.1874v18.3782h-132.8633v-55.711
			H1446.5204z M1489.9792,213.6559c0-3.6997-0.736-7.209-2.2015-10.5293c-1.4689-3.3171-3.4165-6.2514-5.8395-8.8064
			c-2.5551-2.4231-5.4568-4.3707-8.7103-5.8395c-3.2552-1.4656-6.7335-2.2016-10.4349-2.2016c-3.703,0-7.2122,0.736-10.5292,2.2016
			c-3.3203,1.4688-6.2548,3.4164-8.8065,5.8395c-2.4263,2.555-4.3739,5.4893-5.8395,8.8064
			c-1.4688,3.3203-2.2015,6.8295-2.2015,10.5293c0,3.7046,0.7328,7.1796,2.2015,10.4348c1.4656,3.2536,3.4132,6.1586,5.8395,8.7103
			c2.5518,2.4263,5.4862,4.3739,8.8065,5.8395c3.317,1.4688,6.8262,2.2016,10.5292,2.2016c3.7014,0,7.1797-0.7328,10.4349-2.2016
			c3.2535-1.4656,6.1553-3.4131,8.7103-5.8395c2.423-2.5517,4.3706-5.4568,5.8395-8.7103
			C1489.2433,220.8356,1489.9792,217.3605,1489.9792,213.6559z M1554.4951,273.5797h-20.6759V166.7529h20.6759v36.3737h23.931
			v20.4854h-23.931V273.5797z"/>
		<path fill="#575757" d="M1593.3571,189.3422v-17.8034h95.7227v17.8034h-40.5864l42.3092,62.4119l-15.6979,10.5293
			l-32.9296-50.1582l-32.928,51.4984l-16.0822-10.7214l42.1187-63.56H1593.3571z M1604.8438,330.2466v-55.711h20.6759v37.3328
			h116.0159v18.3782H1604.8438z M1719.329,273.5797v-49.2023h-31.0146v-18.3782h31.0146v-39.2462h20.6758v106.8267H1719.329z"/>
		<path fill="#575757" d="M1806.6245,184.3658v-17.805h22.2083v17.805h39.821v17.8034h-42.3092l45.7549,102.4235l-17.2301,7.6584
			l-37.1407-84.6185l-36.7563,85.9587l-17.6145-7.8489l45.7566-103.5732h-44.0321v-17.8034H1806.6245z M1893.925,251.3715h-32.1643
			v-18.3782h32.1643v-66.2403h20.6759v166.7488h-20.6759V251.3715z"/>
	</g>
</g>
</svg>
