<?xml version="1.0" encoding="utf-8"?>
<!-- Generator: Adobe Illustrator 14.0.0, SVG Export Plug-In  -->
<!DOCTYPE svg PUBLIC "-//W3C//DTD SVG 1.1//EN" "http://www.w3.org/Graphics/SVG/1.1/DTD/svg11.dtd" [
	<!ENTITY ns_flows "http://ns.adobe.com/Flows/1.0/">
]>
<svg version="1.1"
	 xmlns="http://www.w3.org/2000/svg" xmlns:xlink="http://www.w3.org/1999/xlink" xmlns:a="http://ns.adobe.com/AdobeSVGViewerExtensions/3.0/"
	 x="0px" y="0px" width="157px" height="79px" viewBox="-7.8 -11.8 157 79" enable-background="new -7.8 -11.8 157 79"
	 xml:space="preserve">
<defs>
</defs>
<path fill="#00418F" d="M131,30.6v1.6c-2.1-1.2-4.5-1.9-7.1-1.9c-6.6,0-12.1,4.4-13.8,10.4v-22h-8.9v13.5C99,31,96.6,30.3,94,30.3
	c-6.8,0-12.6,4.8-14,11.2c-0.5-6.2-5.7-11.1-12-11.1c-2.9,0-5.5,1-7.6,2.7c-2.1-1.7-4.7-2.7-7.6-2.7c-2.4,0-4.6,0.7-6.5,1.9
	c2.7-3.4,4.3-7.7,4.3-12.4c0-11.1-9-20-20-20c-11,0-20,9-20,20v0v10.7H0V40h10.7v18.6H20V40h10.7c4.6,0,8.8-1.5,12.1-4.1
	c-1.3,1.9-2,4.2-2,6.6h0v16.1h8.9V42.5h0c0-1.7,1.4-3.1,3.1-3.1c1.7,0,3.1,1.4,3.1,3.1h0v16.1h8.9V42.5l0,0c0-1.7,1.4-3.1,3.1-3.1
	c1.7,0,3.1,1.4,3.1,3.1v16.1H80V47.9c1.5,6.3,7.1,11,13.9,11c2.6,0,5-0.7,7.1-1.9v1.6h8.9V48.5c1.7,6,7.2,10.4,13.8,10.4
	c2.6,0,5-0.7,7.1-1.9v1.6h8.9v-28H131z"/>
<path fill="#F29600" d="M41.3,20c0-5.9-4.8-10.7-10.7-10.7C24.8,9.3,20,14.1,20,20h0v10.7h10.7C36.6,30.7,41.3,25.9,41.3,20"/>
<path fill="#F29600" d="M99.3,44.6c0,2.9-2.4,5.3-5.3,5.3c-2.9,0-5.3-2.4-5.3-5.3c0-2.9,2.4-5.3,5.3-5.3
	C96.9,39.3,99.3,41.7,99.3,44.6"/>
<path fill="#F29600" d="M129.1,44.6c0,2.9-2.4,5.3-5.3,5.3c-2.9,0-5.3-2.4-5.3-5.3c0-2.9,2.4-5.3,5.3-5.3
	C126.8,39.3,129.1,41.7,129.1,44.6"/>
</svg>
