<svg xmlns="http://www.w3.org/2000/svg" width="369.62" height="215.18" viewBox="0 0 369.62 215.18"><defs><style>.cls-1{fill:#636569;}.cls-2{fill:#db0032;}</style></defs><g id="Layer_2" data-name="Layer 2"><g id="Layer_1-2" data-name="Layer 1"><path class="cls-1" d="M110.89,157.78h-4.47v-3h12.17v3h-4.46v11.71h-3.24Z"/><path class="cls-1" d="M120.85,163.2v-8.4h3.23v8.31c0,2.4,1.19,3.63,3.17,3.63s3.16-1.19,3.16-3.52V154.8h3.23v8.29c0,4.45-2.49,6.63-6.44,6.63S120.85,167.52,120.85,163.2ZM123.43,151h3.06v2.66h-3.06Zm4.57,0h3.06v2.66H128Z"/><path class="cls-1" d="M137,154.8h6.71a5.86,5.86,0,0,1,4.28,1.49,4.62,4.62,0,0,1,1.26,3.36v0a4.58,4.58,0,0,1-3.15,4.56l3.59,5.24h-3.78l-3.14-4.7h-2.54v4.7H137Zm6.5,7.14c1.57,0,2.48-.84,2.48-2.08v0c0-1.39-1-2.1-2.54-2.1h-3.21v4.22Z"/><path class="cls-1" d="M152.12,154.8h3.24v6.42l5.95-6.42h3.91l-6,6.24,6.25,8.45h-3.88l-4.56-6.25L155.36,165v4.49h-3.24Z"/><path class="cls-1" d="M167.59,154.8h3.24v14.69h-3.24Zm0-3.81h3.14v2.66h-3.14Z"/><path class="cls-1" d="M178.64,163.7,173,154.8h3.78l3.5,5.9,3.57-5.9h3.67l-5.64,8.84v5.85h-3.23Z"/><path class="cls-1" d="M189.53,154.8h11.08v2.88h-7.87v3h6.93v2.87h-6.93v3.09h8v2.87H189.53Z"/><path class="cls-1" d="M213.31,157.78h-4.47v-3H221v3h-4.46v11.71h-3.24Z"/><path class="cls-1" d="M223.27,163.2v-8.4h3.23v8.31c0,2.4,1.19,3.63,3.17,3.63s3.16-1.19,3.16-3.52V154.8h3.23v8.29c0,4.45-2.49,6.63-6.44,6.63S223.27,167.52,223.27,163.2Z"/><path class="cls-1" d="M239.37,154.8h6.71a5.86,5.86,0,0,1,4.28,1.49,4.62,4.62,0,0,1,1.26,3.36v0a4.58,4.58,0,0,1-3.15,4.56l3.59,5.24h-3.78l-3.14-4.7H242.6v4.7h-3.23Zm6.5,7.14c1.58,0,2.48-.84,2.48-2.08v0c0-1.39-1-2.1-2.54-2.1H242.6v4.22Z"/><path class="cls-1" d="M254.69,154.8h3.23v14.69h-3.23Zm0-3.81h3.15v2.66h-3.15Z"/><path class="cls-1" d="M261.16,167l8.08-9.4h-7.83V154.8h12v2.46l-8.08,9.4h8.08v2.83H261.16Z"/><path class="cls-1" d="M276.46,154.8h3.48L283.8,161l3.87-6.21h3.48v14.69h-3.21V159.9l-4.14,6.28h-.08L279.63,160v9.52h-3.17Z"/><path class="cls-1" d="M110.89,180.53h-4.47v-3h12.17v3h-4.46v11.7h-3.24Z"/><path class="cls-1" d="M124.22,177.44h3l6.3,14.79h-3.38l-1.35-3.29h-6.21l-1.34,3.29h-3.29Zm3.4,8.65-2-4.77-2,4.77Z"/><path class="cls-1" d="M135.77,177.55h3l6.88,9v-9h3.19v14.68h-2.75L139,182.9v9.33h-3.19Z"/><path class="cls-1" d="M152.5,177.55h3.23v14.68H152.5Z"/><path class="cls-1" d="M162.83,180.53h-4.47v-3h12.17v3h-4.47v11.7h-3.23Z"/><path class="cls-1" d="M173.16,177.55h3.23v14.68h-3.23Z"/><path class="cls-1" d="M180.06,177.55h3.49l3.86,6.21,3.86-6.21h3.48v14.68h-3.21v-9.59l-4.13,6.28h-.09l-4.09-6.21v9.52h-3.17Z"/><path class="cls-1" d="M203.32,177.55h3.57l3.84,10.34,3.84-10.34h3.48l-5.94,14.79h-2.85Z"/><path class="cls-1" d="M220.33,177.55h11.08v2.87h-7.87v3h6.92v2.87h-6.92v3.09h8v2.87H220.33Z"/><path class="cls-1" d="M240,184.93v0a7.54,7.54,0,0,1,7.7-7.6,8.07,8.07,0,0,1,5.77,2l-2,2.45a5.42,5.42,0,0,0-3.84-1.49,4.41,4.41,0,0,0-4.21,4.58v0a4.4,4.4,0,0,0,4.45,4.66,5.22,5.22,0,0,0,3-.88v-2.1h-3.25v-2.79H254v6.38a9.51,9.51,0,0,1-6.27,2.32A7.35,7.35,0,0,1,240,184.93Z"/><path class="cls-1" d="M257.15,177.55h11.08v2.87h-7.87v3h6.92v2.87h-6.92v3.09h8v2.87H257.15Z"/><path class="cls-1" d="M271.21,177.55h3.23V189.3h7.33v2.93H271.21Z"/><path class="cls-1" d="M284.35,177.55h3.24v14.68h-3.24Zm0-3.82h3.14v2.66H284.4Z"/><path class="cls-1" d="M293.44,194.75l1.64-2.41a9.1,9.1,0,0,1-4.83-2.25l1.91-2.28a6.74,6.74,0,0,0,4.39,1.78c1.32,0,2.12-.52,2.12-1.39v0c0-.82-.51-1.24-3-1.87-3-.75-4.87-1.57-4.87-4.49v0c0-2.66,2.14-4.42,5.14-4.42a8.54,8.54,0,0,1,5.46,1.86l-1.68,2.44a6.91,6.91,0,0,0-3.82-1.45c-1.24,0-1.89.57-1.89,1.28v0c0,1,.63,1.28,3.17,1.93,3,.78,4.66,1.85,4.66,4.41v0c0,2.6-1.77,4.18-4.37,4.49l-1.4,3.48Z"/><path class="cls-1" d="M307.8,180.53h-4.47v-3H315.5v3H311v11.7H307.8Z"/><path class="cls-1" d="M318.13,177.55h3.23v14.68h-3.23Zm0-3.82h3.15v2.66h-3.15Z"/><path class="cls-1" d="M325,177.55h6.71A5.82,5.82,0,0,1,336,179a4.58,4.58,0,0,1,1.26,3.35v.05a4.57,4.57,0,0,1-3.15,4.55l3.59,5.24H334l-3.15-4.7h-2.54v4.7H325Zm6.5,7.13c1.58,0,2.48-.84,2.48-2.08v0c0-1.38-1-2.1-2.54-2.1h-3.21v4.22Z"/><path class="cls-1" d="M340.22,177.55h3.48l3.86,6.21,3.86-6.21h3.48v14.68h-3.21v-9.59l-4.13,6.28h-.08l-4.1-6.21v9.52h-3.16Z"/><path class="cls-1" d="M358.44,177.55h11.08v2.87h-7.87v3h6.92v2.87h-6.92v3.09h8v2.87H358.44Z"/><path class="cls-1" d="M112.51,200.18h3L121.78,215h-3.37l-1.35-3.29h-6.21L109.51,215h-3.29Zm3.4,8.65-2-4.76L112,208.83Z"/><path class="cls-1" d="M122.59,213l2-2.26a3.63,3.63,0,0,0,2.69,1.46c1.22,0,2-.73,2-2.43v-9.46h3.32v9.61a5.33,5.33,0,0,1-1.39,3.92,5.24,5.24,0,0,1-3.82,1.36A6,6,0,0,1,122.59,213Z"/><path class="cls-1" d="M140.41,200.18h3L149.68,215H146.3L145,211.68h-6.21L137.41,215h-3.29Zm3.4,8.65-1.95-4.76-2,4.76Z"/><path class="cls-1" d="M152,200.29h3l6.88,9v-9H165V215h-2.75l-7.11-9.33V215H152Z"/><path class="cls-1" d="M167.53,212.83l1.91-2.28a6.74,6.74,0,0,0,4.39,1.78c1.32,0,2.12-.52,2.12-1.38v0c0-.81-.51-1.23-3-1.86-3-.76-4.87-1.58-4.87-4.49v0c0-2.67,2.14-4.43,5.14-4.43a8.54,8.54,0,0,1,5.46,1.86L177,204.38a6.91,6.91,0,0,0-3.82-1.45c-1.24,0-1.89.57-1.89,1.28v0c0,1,.63,1.28,3.17,1.93,3,.78,4.66,1.85,4.66,4.41v0c0,2.92-2.23,4.55-5.4,4.55A9.33,9.33,0,0,1,167.53,212.83Z"/><path class="cls-1" d="M182.12,200.29h3.23V215h-3.23Z"/><path class="cls-2" d="M172.25,74.55H148.16V85.38h37.93v26.7h0l-.2.2A39.34,39.34,0,0,1,157,124.73a39.72,39.72,0,0,1,0-79.44,39.36,39.36,0,0,1,28.67,12.23c2.83-3.45,5.47-6.64,6.93-8.34a50.54,50.54,0,1,0,4,67.17h.1V74.55Z"/><path class="cls-2" d="M176.93,68.25c1.87-2.3,4.41-5.42,6.95-8.52A37.38,37.38,0,0,0,157,48.13a36.88,36.88,0,0,0,0,73.76A36.53,36.53,0,0,0,183.22,111V88.22H148.16V99h24.09v7a26,26,0,1,1,4.68-37.84Z"/><rect class="cls-2" y="36.56" width="114.08" height="10.81"/><polygon class="cls-2" points="114.08 50.22 39.9 50.22 39.9 61.05 64.75 61.05 64.75 129.51 75.58 129.51 75.58 61.05 78.42 61.05 78.42 169.42 89.24 169.42 89.24 61.05 114.08 61.05 114.08 50.22"/><polygon class="cls-2" points="216.98 101.96 205.99 129.31 217.41 129.31 224.09 112.81 257.9 112.81 264.58 129.31 276.15 129.31 265.13 101.96 216.98 101.96"/><polygon class="cls-2" points="268.24 101.96 279.24 129.31 291 129.31 279.93 101.96 268.24 101.96"/><polygon class="cls-2" points="202.8 129.31 238.83 39.9 227.19 39.9 191.16 129.31 202.8 129.31"/><path class="cls-2" d="M311.77,88.37H274.43L238.64,0h-11.4l35.54,88.37h-3.12L241,42.15l-22.91,57h98ZM234,88.32l7-17.27,7,17.27Z"/></g></g></svg>